<svg width="13" height="13" viewBox="0 0 13 13" fill="none" xmlns="http://www.w3.org/2000/svg">
<g clip-path="url(#clip0_517_1039)">
<path d="M4.42865 6.56242V12.2924C4.42865 12.3748 4.49535 12.4417 4.57739 12.4417H6.69752C6.77955 12.4417 6.84602 12.3748 6.84602 12.2924V6.46912H8.38308C8.46023 6.46912 8.5246 6.40964 8.53111 6.33243L8.67891 4.57786C8.68635 4.49086 8.61803 4.41598 8.53088 4.41598H6.84602V3.17108C6.84602 2.87951 7.08167 2.64298 7.37239 2.64298H8.55691C8.63917 2.64298 8.70564 2.57604 8.70564 2.4937V0.739129C8.70564 0.656556 8.63917 0.589844 8.55691 0.589844H6.55553C5.38101 0.589844 4.42865 1.5455 4.42865 2.72439V4.41598H3.3687C3.28667 4.41598 3.21997 4.48292 3.21997 4.56526V6.31983C3.21997 6.40217 3.28667 6.46912 3.3687 6.46912H4.42865V6.56242Z" fill="white"/>
</g>
<defs>
<clipPath id="clip0_517_1039">
<rect width="12" height="12" fill="white" transform="translate(0.219971 0.589844)"/>
</clipPath>
</defs>
</svg>
