<svg xmlns="http://www.w3.org/2000/svg" xmlns:xlink="http://www.w3.org/1999/xlink" width="430" zoomAndPan="magnify" viewBox="0 0 322.5 322.499999" height="430" preserveAspectRatio="xMidYMid meet" version="1.0"><defs><clipPath id="cfbf0fa874"><path d="M 0 0 L 320.902344 0 L 320.902344 320.902344 L 0 320.902344 Z M 0 0 " clip-rule="nonzero"/></clipPath><clipPath id="6f59e77c17"><path d="M 81.644531 104 L 239.699219 104 L 239.699219 244 L 81.644531 244 Z M 81.644531 104 " clip-rule="nonzero"/></clipPath><clipPath id="24835c2704"><path d="M 150 77.5625 L 171 77.5625 L 171 163 L 150 163 Z M 150 77.5625 " clip-rule="nonzero"/></clipPath></defs><g clip-path="url(#cfbf0fa874)"><path fill="#4157ff" d="M 320.101562 187.292969 C 320.761719 165.617188 320.761719 165.578125 321.425781 143.910156 L 287.863281 130.820312 C 283.019531 118.039062 280.597656 111.621094 275.757812 98.839844 L 292.210938 66.777344 C 277.347656 51.035156 277.304688 50.992188 262.441406 35.199219 L 229.484375 49.664062 L 198.351562 35.605469 L 187.292969 1.324219 L 143.949219 0 L 130.820312 33.5625 C 118.078125 38.40625 111.621094 40.824219 98.886719 45.667969 L 66.828125 29.230469 C 51.035156 44.046875 50.992188 44.09375 35.199219 58.949219 L 49.664062 91.941406 C 44.09375 104.367188 41.261719 110.65625 35.644531 123.074219 L 1.324219 134.136719 C 0.660156 155.804688 0.660156 155.847656 0 177.472656 L 33.5625 190.609375 C 38.40625 203.34375 40.824219 209.800781 45.667969 222.585938 L 29.230469 254.605469 C 44.09375 270.390625 44.132812 270.4375 58.949219 286.222656 L 91.941406 271.761719 C 104.417969 277.339844 110.695312 280.164062 123.121094 285.78125 L 134.136719 320.101562 L 177.539062 321.425781 L 190.628906 287.863281 C 203.410156 283.019531 209.816406 280.597656 222.601562 275.757812 L 254.660156 292.210938 L 286.238281 262.488281 L 271.777344 229.5 C 277.425781 217.074219 280.226562 210.746094 285.84375 198.316406 Z M 160.710938 255.007812 C 159.167969 255.007812 157.628906 254.972656 156.085938 254.894531 C 154.542969 254.820312 153.007812 254.707031 151.46875 254.554688 C 149.933594 254.402344 148.402344 254.214844 146.878906 253.988281 C 145.351562 253.761719 143.832031 253.496094 142.316406 253.195312 C 140.804688 252.894531 139.300781 252.554688 137.804688 252.179688 C 136.304688 251.804688 134.820312 251.394531 133.34375 250.945312 C 131.867188 250.5 130.402344 250.015625 128.949219 249.496094 C 127.496094 248.976562 126.058594 248.417969 124.632812 247.828125 C 123.207031 247.238281 121.796875 246.613281 120.402344 245.953125 C 119.003906 245.292969 117.628906 244.601562 116.265625 243.871094 C 114.90625 243.144531 113.5625 242.382812 112.242188 241.589844 C 110.917969 240.796875 109.613281 239.972656 108.332031 239.113281 C 107.046875 238.257812 105.785156 237.371094 104.546875 236.449219 C 103.308594 235.53125 102.09375 234.582031 100.898438 233.601562 C 99.707031 232.625 98.539062 231.617188 97.394531 230.578125 C 96.253906 229.542969 95.136719 228.480469 94.042969 227.390625 C 92.953125 226.296875 91.890625 225.179688 90.851562 224.035156 C 89.816406 222.894531 88.808594 221.726562 87.832031 220.53125 C 86.851562 219.339844 85.902344 218.125 84.984375 216.882812 C 84.066406 215.644531 83.175781 214.382812 82.320312 213.101562 C 81.460938 211.816406 80.636719 210.515625 79.84375 209.191406 C 79.050781 207.867188 78.289062 206.523438 77.5625 205.164062 C 76.835938 203.804688 76.140625 202.425781 75.480469 201.03125 C 74.824219 199.636719 74.199219 198.226562 73.605469 196.800781 C 73.015625 195.375 72.460938 193.933594 71.941406 192.480469 C 71.421875 191.027344 70.9375 189.5625 70.492188 188.085938 C 70.042969 186.609375 69.632812 185.125 69.257812 183.628906 C 68.882812 182.128906 68.542969 180.625 68.242188 179.113281 C 67.941406 177.597656 67.679688 176.078125 67.453125 174.550781 C 67.226562 173.027344 67.035156 171.496094 66.886719 169.960938 C 66.734375 168.421875 66.621094 166.886719 66.542969 165.34375 C 66.46875 163.804688 66.429688 162.261719 66.429688 160.71875 C 66.429688 159.175781 66.46875 157.632812 66.546875 156.089844 C 66.621094 154.550781 66.734375 153.011719 66.886719 151.476562 C 67.035156 149.941406 67.226562 148.410156 67.453125 146.882812 C 67.679688 145.355469 67.941406 143.835938 68.242188 142.324219 C 68.542969 140.808594 68.882812 139.304688 69.257812 137.808594 C 69.632812 136.3125 70.042969 134.824219 70.492188 133.347656 C 70.941406 131.871094 71.425781 130.40625 71.945312 128.953125 C 72.464844 127.5 73.019531 126.0625 73.609375 124.636719 C 74.199219 123.210938 74.824219 121.800781 75.484375 120.40625 C 76.144531 119.011719 76.839844 117.632812 77.566406 116.273438 C 78.292969 114.910156 79.054688 113.570312 79.847656 112.246094 C 80.640625 110.921875 81.464844 109.617188 82.324219 108.335938 C 83.179688 107.050781 84.066406 105.792969 84.988281 104.550781 C 85.90625 103.3125 86.855469 102.097656 87.835938 100.902344 C 88.8125 99.710938 89.820312 98.542969 90.855469 97.398438 C 91.894531 96.257812 92.957031 95.140625 94.046875 94.046875 C 95.140625 92.957031 96.257812 91.894531 97.398438 90.855469 C 98.542969 89.820312 99.710938 88.8125 100.902344 87.835938 C 102.097656 86.855469 103.3125 85.90625 104.550781 84.988281 C 105.792969 84.066406 107.050781 83.179688 108.335938 82.324219 C 109.617188 81.464844 110.921875 80.640625 112.246094 79.847656 C 113.570312 79.054688 114.910156 78.292969 116.273438 77.566406 C 117.632812 76.839844 119.011719 76.144531 120.40625 75.484375 C 121.800781 74.824219 123.210938 74.199219 124.636719 73.609375 C 126.0625 73.019531 127.5 72.464844 128.953125 71.945312 C 130.40625 71.425781 131.871094 70.941406 133.347656 70.492188 C 134.824219 70.042969 136.3125 69.632812 137.808594 69.257812 C 139.304688 68.882812 140.808594 68.542969 142.324219 68.242188 C 143.835938 67.941406 145.355469 67.679688 146.882812 67.453125 C 148.410156 67.226562 149.941406 67.035156 151.476562 66.886719 C 153.011719 66.734375 154.550781 66.621094 156.089844 66.546875 C 157.632812 66.46875 159.175781 66.429688 160.71875 66.429688 C 162.261719 66.429688 163.800781 66.46875 165.34375 66.542969 C 166.886719 66.621094 168.421875 66.734375 169.960938 66.886719 C 171.496094 67.035156 173.027344 67.226562 174.550781 67.453125 C 176.078125 67.679688 177.597656 67.941406 179.113281 68.242188 C 180.625 68.542969 182.128906 68.882812 183.628906 69.257812 C 185.125 69.632812 186.609375 70.042969 188.085938 70.492188 C 189.5625 70.9375 191.027344 71.421875 192.480469 71.941406 C 193.933594 72.460938 195.375 73.015625 196.800781 73.605469 C 198.226562 74.199219 199.636719 74.824219 201.03125 75.480469 C 202.425781 76.140625 203.804688 76.835938 205.164062 77.5625 C 206.523438 78.289062 207.867188 79.050781 209.191406 79.84375 C 210.515625 80.636719 211.816406 81.460938 213.101562 82.320312 C 214.382812 83.175781 215.644531 84.066406 216.882812 84.984375 C 218.125 85.902344 219.339844 86.851562 220.53125 87.832031 C 221.726562 88.808594 222.894531 89.816406 224.035156 90.851562 C 225.179688 91.890625 226.296875 92.953125 227.386719 94.042969 C 228.480469 95.136719 229.542969 96.253906 230.578125 97.394531 C 231.617188 98.539062 232.625 99.707031 233.601562 100.898438 C 234.582031 102.09375 235.53125 103.308594 236.449219 104.546875 C 237.371094 105.785156 238.257812 107.046875 239.113281 108.332031 C 239.972656 109.613281 240.796875 110.917969 241.589844 112.242188 C 242.382812 113.5625 243.144531 114.90625 243.871094 116.265625 C 244.601562 117.628906 245.292969 119.003906 245.953125 120.402344 C 246.613281 121.796875 247.238281 123.207031 247.828125 124.632812 C 248.417969 126.058594 248.976562 127.496094 249.496094 128.949219 C 250.015625 130.402344 250.5 131.867188 250.945312 133.34375 C 251.394531 134.820312 251.804688 136.304688 252.179688 137.804688 C 252.554688 139.300781 252.894531 140.804688 253.195312 142.316406 C 253.496094 143.832031 253.761719 145.351562 253.988281 146.878906 C 254.214844 148.402344 254.402344 149.933594 254.554688 151.46875 C 254.707031 153.007812 254.820312 154.542969 254.894531 156.085938 C 254.972656 157.628906 255.007812 159.167969 255.007812 160.710938 C 255.007812 162.253906 254.96875 163.796875 254.894531 165.339844 C 254.816406 166.878906 254.703125 168.417969 254.554688 169.953125 C 254.402344 171.488281 254.210938 173.019531 253.984375 174.546875 C 253.757812 176.074219 253.496094 177.59375 253.191406 179.105469 C 252.890625 180.621094 252.554688 182.125 252.179688 183.621094 C 251.804688 185.117188 251.390625 186.605469 250.941406 188.082031 C 250.496094 189.558594 250.011719 191.023438 249.492188 192.476562 C 248.972656 193.929688 248.414062 195.367188 247.824219 196.792969 C 247.234375 198.21875 246.609375 199.628906 245.949219 201.023438 C 245.289062 202.417969 244.59375 203.796875 243.867188 205.160156 C 243.140625 206.519531 242.378906 207.863281 241.585938 209.183594 C 240.792969 210.507812 239.96875 211.8125 239.109375 213.09375 C 238.253906 214.378906 237.363281 215.640625 236.445312 216.878906 C 235.523438 218.117188 234.578125 219.335938 233.597656 220.527344 C 232.617188 221.71875 231.609375 222.886719 230.574219 224.03125 C 229.539062 225.175781 228.472656 226.292969 227.382812 227.382812 C 226.292969 228.472656 225.175781 229.539062 224.03125 230.574219 C 222.886719 231.609375 221.71875 232.617188 220.527344 233.597656 C 219.335938 234.578125 218.117188 235.523438 216.878906 236.445312 C 215.640625 237.363281 214.378906 238.253906 213.09375 239.109375 C 211.8125 239.96875 210.507812 240.792969 209.183594 241.585938 C 207.863281 242.378906 206.519531 243.140625 205.160156 243.867188 C 203.796875 244.59375 202.417969 245.289062 201.023438 245.949219 C 199.628906 246.609375 198.21875 247.234375 196.792969 247.824219 C 195.367188 248.414062 193.929688 248.972656 192.476562 249.492188 C 191.023438 250.011719 189.558594 250.496094 188.082031 250.941406 C 186.605469 251.390625 185.117188 251.804688 183.621094 252.179688 C 182.125 252.554688 180.621094 252.890625 179.105469 253.191406 C 177.59375 253.496094 176.074219 253.757812 174.546875 253.984375 C 173.019531 254.210938 171.488281 254.402344 169.953125 254.554688 C 168.417969 254.703125 166.878906 254.816406 165.339844 254.894531 C 163.796875 254.96875 162.253906 255.007812 160.710938 255.007812 Z M 160.710938 255.007812 " fill-opacity="1" fill-rule="nonzero"/></g><g clip-path="url(#6f59e77c17)"><path fill="#4157ff" d="M 160.726562 243.785156 C 117.21875 243.785156 81.820312 208.390625 81.820312 164.882812 C 81.820312 143.136719 90.925781 122.144531 106.804688 107.277344 C 110.84375 103.515625 117.148438 103.722656 120.921875 107.742188 C 124.683594 111.769531 124.480469 118.085938 120.453125 121.851562 C 108.414062 133.121094 101.785156 148.402344 101.785156 164.882812 C 101.785156 197.386719 128.222656 223.824219 160.726562 223.824219 C 193.226562 223.824219 219.667969 197.386719 219.667969 164.882812 C 219.667969 148.773438 213.28125 133.722656 201.691406 122.511719 C 197.730469 118.679688 197.625 112.359375 201.457031 108.394531 C 205.289062 104.445312 211.605469 104.320312 215.574219 108.160156 C 231.082031 123.167969 239.632812 143.316406 239.632812 164.882812 C 239.632812 208.390625 204.234375 243.785156 160.726562 243.785156 Z M 160.726562 243.785156 " fill-opacity="1" fill-rule="nonzero"/></g><g clip-path="url(#24835c2704)"><path fill="#4157ff" d="M 160.726562 162.949219 C 155.207031 162.949219 150.742188 158.480469 150.742188 152.96875 L 150.742188 87.546875 C 150.742188 82.03125 155.207031 77.5625 160.726562 77.5625 C 166.242188 77.5625 170.710938 82.03125 170.710938 87.546875 L 170.710938 152.96875 C 170.707031 158.480469 166.242188 162.949219 160.726562 162.949219 Z M 160.726562 162.949219 " fill-opacity="1" fill-rule="nonzero"/></g></svg>