<svg width="13" height="13" viewBox="0 0 13 13" fill="none" xmlns="http://www.w3.org/2000/svg">
<g clip-path="url(#clip0_517_1048)">
<path d="M12.1455 2.92654C11.7813 3.09198 11.3804 3.19241 10.9871 3.25859C11.1737 3.22713 11.4488 2.88809 11.5589 2.75085C11.7267 2.5416 11.8663 2.30322 11.9447 2.04574C11.9547 2.0257 11.9624 2.0003 11.9422 1.98515C11.9171 1.97513 11.9008 1.98026 11.8809 1.99028C11.4419 2.22633 10.988 2.39759 10.5049 2.51876C10.4647 2.52878 10.435 2.51876 10.41 2.4936C10.3698 2.44816 10.3322 2.40552 10.2897 2.3701C10.0866 2.19673 9.86857 2.06065 9.62295 1.96022C9.30049 1.8281 8.94808 1.77218 8.60055 1.79501C8.26254 1.81692 7.93056 1.91269 7.63061 2.06997C7.32998 2.22749 7.06184 2.44676 6.84826 2.71147C6.62725 2.98503 6.46428 3.30822 6.38093 3.65075C6.30038 3.98141 6.30688 4.30856 6.35609 4.64271C6.36352 4.69816 6.35865 4.70562 6.30873 4.69816C4.41854 4.41575 2.85174 3.73697 1.58 2.28225C1.52475 2.2191 1.4948 2.2191 1.44953 2.28714C0.89306 3.12437 1.16305 4.46981 1.85835 5.13087C1.95098 5.21896 2.04617 5.30704 2.14901 5.38743C2.1114 5.39512 1.64872 5.34478 1.23642 5.13087C1.18139 5.09569 1.15354 5.11596 1.14866 5.17864C1.14355 5.26929 1.15121 5.35247 1.16352 5.45057C1.27031 6.29945 1.85603 7.08448 2.65812 7.39067C2.75331 7.43098 2.85847 7.46617 2.96131 7.48387C2.77838 7.52395 2.59033 7.55285 2.06636 7.5116C2.00113 7.49902 1.97606 7.53164 2.00113 7.59456C2.39486 8.67179 3.24477 8.99242 3.88134 9.17511C3.96654 9.19002 4.05197 9.19002 4.1374 9.21006C4.1323 9.21775 4.12719 9.21775 4.12231 9.22521C3.91105 9.5484 3.17907 9.78887 2.83804 9.90841C2.21819 10.1258 1.54309 10.2237 0.887721 10.1589C0.78302 10.1435 0.760965 10.1447 0.73241 10.1589C0.703855 10.1766 0.728928 10.2018 0.76259 10.2293C0.895614 10.3174 1.03073 10.3954 1.16863 10.4709C1.58488 10.6923 2.01877 10.8687 2.4724 10.9943C4.81529 11.6437 7.45441 11.1665 9.21344 9.41232C10.595 8.03449 11.079 6.13471 11.079 4.2326C11.079 4.15803 11.1668 4.11679 11.2188 4.07764C11.5781 3.80664 11.8639 3.48228 12.1321 3.11994C12.1922 3.03862 12.1886 2.96615 12.1886 2.93656C12.1886 2.93143 12.1886 2.92654 12.1886 2.92654C12.1886 2.89601 12.1922 2.90534 12.1455 2.92654Z" fill="white"/>
</g>
<defs>
<clipPath id="clip0_517_1048">
<rect width="12" height="12" fill="white" transform="translate(0.719971 0.589844)"/>
</clipPath>
</defs>
</svg>
