<svg width="13" height="13" viewBox="0 0 13 13" fill="none" xmlns="http://www.w3.org/2000/svg">
<g clip-path="url(#clip0_517_1051)">
<path d="M8.5717 6.6959L5.91278 8.1596C5.79706 8.22242 5.69315 8.13827 5.69315 8.00648V5.00203C5.69315 4.86834 5.80037 4.78443 5.91609 4.85057L8.59319 6.39131C8.7115 6.45886 8.69143 6.63072 8.5717 6.6959ZM12.7779 4.9698C12.7779 3.54473 11.6271 2.38965 10.2076 2.38965H3.54056C2.12101 2.38965 0.969971 3.54473 0.969971 4.9698V8.1058C0.969971 9.53086 2.12101 10.6859 3.54056 10.6859H10.2076C11.6271 10.6859 12.7779 9.53086 12.7779 8.1058V4.9698Z" fill="white"/>
</g>
<defs>
<clipPath id="clip0_517_1051">
<rect width="12" height="12" fill="white" transform="translate(0.969971 0.589844)"/>
</clipPath>
</defs>
</svg>
