<svg width="13" height="13" viewBox="0 0 13 13" fill="none" xmlns="http://www.w3.org/2000/svg">
<g clip-path="url(#clip0_517_1036)">
<path d="M6.92238 3.59696C8.52579 3.59696 9.83038 4.9064 9.83038 6.51577C9.83038 8.12514 8.52579 9.43458 6.92238 9.43458C5.31897 9.43458 4.01461 8.12514 4.01461 6.51577C4.01461 4.9064 5.31897 3.59696 6.92238 3.59696ZM6.92238 4.64616C5.89528 4.64616 5.0597 5.48485 5.0597 6.51577C5.0597 7.54669 5.89528 8.38538 6.92238 8.38538C7.9497 8.38538 8.78507 7.54669 8.78507 6.51577C8.78507 5.48485 7.9497 4.64616 6.92238 4.64616ZM10.0001 2.70609C10.3823 2.70609 10.6922 3.01717 10.6922 3.40072C10.6922 3.7845 10.3823 4.09558 10.0001 4.09558C9.61776 4.09558 9.30783 3.7845 9.30783 3.40072C9.30783 3.01717 9.61776 2.70609 10.0001 2.70609ZM4.51671 1.70483C3.17347 1.70483 2.08083 2.80153 2.08083 4.14977V8.88177C2.08083 10.23 3.17347 11.3267 4.51671 11.3267H9.23096C10.5742 11.3267 11.6671 10.23 11.6671 8.88177V4.14977C11.6671 2.80153 10.5742 1.70483 9.23096 1.70483H4.51671ZM9.23096 12.4417H4.51671C2.56116 12.4417 0.969971 10.8448 0.969971 8.88177V4.14977C0.969971 2.18673 2.56116 0.589844 4.51671 0.589844H9.23096C11.1867 0.589844 12.7779 2.18673 12.7779 4.14977V8.88177C12.7779 10.8448 11.1867 12.4417 9.23096 12.4417Z" fill="white"/>
</g>
<defs>
<clipPath id="clip0_517_1036">
<rect width="12" height="12" fill="white" transform="translate(0.969971 0.589844)"/>
</clipPath>
</defs>
</svg>
