<svg width="13" height="13" viewBox="0 0 13 13" fill="none" xmlns="http://www.w3.org/2000/svg">
<g clip-path="url(#clip0_517_1042)">
<path d="M2.99316 11.252H0.61084V4.05811H2.99316V11.252Z" fill="white"/>
<path d="M1.80196 3.07555H1.78643C0.987003 3.07555 0.469971 2.52319 0.469971 1.83285C0.469971 1.12693 1.00282 0.589844 1.81778 0.589844C2.63273 0.589844 3.13424 1.12693 3.14976 1.83285C3.14976 2.52319 2.63273 3.07555 1.80196 3.07555Z" fill="white"/>
<path d="M11.5833 11.2519H9.20124V7.40334C9.20124 6.43614 8.8563 5.77651 7.99433 5.77651C7.33625 5.77651 6.9443 6.22146 6.77205 6.65097C6.70907 6.80468 6.69369 7.01951 6.69369 7.2345V11.2519H4.31152C4.31152 11.2519 4.34272 4.73291 4.31152 4.058H6.69369V5.07658C7.01027 4.58639 7.57671 3.88916 8.84063 3.88916C10.408 3.88916 11.5833 4.91733 11.5833 7.12693V11.2519Z" fill="white"/>
</g>
<defs>
<clipPath id="clip0_517_1042">
<rect width="12" height="12" fill="white" transform="translate(0.469971 0.589844)"/>
</clipPath>
</defs>
</svg>
