<svg xmlns="http://www.w3.org/2000/svg" xmlns:xlink="http://www.w3.org/1999/xlink" width="301" zoomAndPan="magnify" viewBox="0 0 225.75 66" height="88" preserveAspectRatio="xMidYMid meet" version="1.0"><defs><g/><clipPath id="76438e0b10"><path d="M 0 0.0351562 L 65.925781 0.0351562 L 65.925781 65.960938 L 0 65.960938 Z M 0 0.0351562 " clip-rule="nonzero"/></clipPath><clipPath id="948c264fbc"><path d="M 16.726562 21 L 48.941406 21 L 48.941406 49.640625 L 16.726562 49.640625 Z M 16.726562 21 " clip-rule="nonzero"/></clipPath><clipPath id="e5c3a405d7"><path d="M 30 15.925781 L 35 15.925781 L 35 34 L 30 34 Z M 30 15.925781 " clip-rule="nonzero"/></clipPath></defs><g clip-path="url(#76438e0b10)"><path fill="#4157ff" d="M 65.574219 38.40625 C 65.710938 33.964844 65.710938 33.957031 65.84375 29.515625 L 58.96875 26.835938 C 57.976562 24.21875 57.480469 22.902344 56.488281 20.285156 L 59.859375 13.714844 C 56.816406 10.492188 56.808594 10.484375 53.761719 7.246094 L 47.011719 10.210938 L 40.632812 7.332031 L 38.367188 0.308594 L 29.488281 0.0351562 L 26.800781 6.910156 C 24.1875 7.902344 22.867188 8.398438 20.257812 9.390625 L 13.691406 6.023438 C 10.453125 9.058594 10.445312 9.070312 7.210938 12.113281 L 10.171875 18.871094 C 9.03125 21.417969 8.453125 22.703125 7.300781 25.25 L 0.269531 27.515625 C 0.136719 31.953125 0.136719 31.960938 0 36.394531 L 6.875 39.082031 C 7.867188 41.691406 8.363281 43.015625 9.355469 45.632812 L 5.988281 52.195312 C 9.03125 55.425781 9.042969 55.4375 12.078125 58.671875 L 18.835938 55.707031 C 21.390625 56.851562 22.675781 57.429688 25.222656 58.578125 L 27.480469 65.609375 L 36.371094 65.882812 L 39.050781 59.007812 C 41.667969 58.015625 42.980469 57.519531 45.601562 56.527344 L 52.167969 59.898438 L 58.636719 53.808594 L 55.675781 47.050781 C 56.832031 44.503906 57.40625 43.207031 58.554688 40.664062 Z M 32.921875 52.277344 C 32.289062 52.277344 31.660156 52.246094 31.03125 52.183594 C 30.398438 52.121094 29.773438 52.027344 29.15625 51.90625 C 28.535156 51.78125 27.921875 51.628906 27.316406 51.445312 C 26.710938 51.261719 26.117188 51.046875 25.53125 50.804688 C 24.945312 50.5625 24.375 50.292969 23.816406 49.996094 C 23.261719 49.695312 22.71875 49.371094 22.191406 49.019531 C 21.667969 48.667969 21.160156 48.292969 20.667969 47.890625 C 20.179688 47.488281 19.710938 47.066406 19.265625 46.617188 C 18.816406 46.171875 18.394531 45.703125 17.992188 45.214844 C 17.589844 44.722656 17.214844 44.21875 16.863281 43.691406 C 16.511719 43.164062 16.1875 42.621094 15.890625 42.066406 C 15.589844 41.507812 15.320312 40.9375 15.078125 40.351562 C 14.835938 39.765625 14.625 39.171875 14.441406 38.566406 C 14.257812 37.960938 14.101562 37.347656 13.980469 36.726562 C 13.855469 36.109375 13.765625 35.484375 13.703125 34.851562 C 13.640625 34.222656 13.609375 33.59375 13.609375 32.960938 C 13.609375 32.328125 13.640625 31.695312 13.703125 31.066406 C 13.765625 30.4375 13.855469 29.8125 13.980469 29.191406 C 14.101562 28.570312 14.257812 27.957031 14.441406 27.351562 C 14.625 26.746094 14.835938 26.152344 15.078125 25.570312 C 15.320312 24.984375 15.589844 24.414062 15.890625 23.855469 C 16.1875 23.296875 16.511719 22.753906 16.863281 22.230469 C 17.214844 21.703125 17.59375 21.195312 17.992188 20.707031 C 18.394531 20.21875 18.820312 19.75 19.265625 19.300781 C 19.714844 18.855469 20.179688 18.429688 20.671875 18.03125 C 21.160156 17.628906 21.667969 17.253906 22.191406 16.902344 C 22.71875 16.550781 23.261719 16.222656 23.820312 15.925781 C 24.375 15.628906 24.949219 15.359375 25.53125 15.117188 C 26.117188 14.875 26.710938 14.660156 27.316406 14.476562 C 27.921875 14.292969 28.535156 14.140625 29.15625 14.015625 C 29.777344 13.894531 30.402344 13.800781 31.03125 13.738281 C 31.660156 13.675781 32.292969 13.644531 32.921875 13.644531 C 33.554688 13.644531 34.1875 13.675781 34.816406 13.738281 C 35.445312 13.800781 36.070312 13.894531 36.691406 14.015625 C 37.3125 14.140625 37.925781 14.292969 38.53125 14.476562 C 39.136719 14.660156 39.730469 14.875 40.316406 15.117188 C 40.898438 15.355469 41.472656 15.628906 42.027344 15.925781 C 42.585938 16.222656 43.128906 16.546875 43.65625 16.898438 C 44.179688 17.25 44.6875 17.628906 45.175781 18.027344 C 45.664062 18.429688 46.132812 18.855469 46.582031 19.300781 C 47.027344 19.75 47.453125 20.21875 47.855469 20.707031 C 48.253906 21.195312 48.632812 21.703125 48.984375 22.230469 C 49.335938 22.753906 49.660156 23.296875 49.957031 23.855469 C 50.257812 24.414062 50.527344 24.984375 50.769531 25.566406 C 51.011719 26.152344 51.222656 26.746094 51.40625 27.351562 C 51.589844 27.957031 51.746094 28.570312 51.867188 29.191406 C 51.992188 29.8125 52.085938 30.4375 52.144531 31.066406 C 52.207031 31.695312 52.238281 32.328125 52.238281 32.960938 C 52.238281 33.589844 52.207031 34.222656 52.144531 34.851562 C 52.085938 35.480469 51.992188 36.105469 51.867188 36.726562 C 51.742188 37.347656 51.589844 37.960938 51.40625 38.566406 C 51.222656 39.171875 51.011719 39.765625 50.769531 40.351562 C 50.527344 40.933594 50.253906 41.507812 49.957031 42.0625 C 49.660156 42.621094 49.335938 43.164062 48.984375 43.691406 C 48.632812 44.214844 48.253906 44.722656 47.851562 45.210938 C 47.453125 45.703125 47.027344 46.167969 46.582031 46.617188 C 46.132812 47.0625 45.664062 47.488281 45.175781 47.890625 C 44.6875 48.292969 44.179688 48.667969 43.652344 49.019531 C 43.128906 49.371094 42.585938 49.695312 42.027344 49.992188 C 41.46875 50.292969 40.898438 50.5625 40.3125 50.804688 C 39.730469 51.046875 39.136719 51.257812 38.53125 51.441406 C 37.925781 51.628906 37.3125 51.78125 36.691406 51.902344 C 36.070312 52.027344 35.445312 52.121094 34.816406 52.183594 C 34.1875 52.246094 33.554688 52.277344 32.921875 52.277344 Z M 32.921875 52.277344 " fill-opacity="1" fill-rule="nonzero"/></g><g clip-path="url(#948c264fbc)"><path fill="#4157ff" d="M 32.921875 49.972656 C 24.011719 49.972656 16.761719 42.722656 16.761719 33.8125 C 16.761719 29.359375 18.625 25.058594 21.878906 22.011719 C 22.707031 21.242188 23.996094 21.285156 24.769531 22.109375 C 25.539062 22.933594 25.5 24.226562 24.675781 25 C 22.207031 27.308594 20.851562 30.4375 20.851562 33.8125 C 20.851562 40.46875 26.265625 45.886719 32.921875 45.886719 C 39.578125 45.886719 44.996094 40.46875 44.996094 33.8125 C 44.996094 30.511719 43.6875 27.429688 41.3125 25.132812 C 40.503906 24.347656 40.480469 23.054688 41.265625 22.242188 C 42.050781 21.433594 43.34375 21.40625 44.15625 22.195312 C 47.332031 25.269531 49.085938 29.394531 49.085938 33.8125 C 49.085938 42.722656 41.835938 49.972656 32.921875 49.972656 Z M 32.921875 49.972656 " fill-opacity="1" fill-rule="nonzero"/></g><g clip-path="url(#e5c3a405d7)"><path fill="#4157ff" d="M 32.921875 33.417969 C 31.792969 33.417969 30.878906 32.5 30.878906 31.371094 L 30.878906 17.972656 C 30.878906 16.84375 31.792969 15.925781 32.921875 15.925781 C 34.054688 15.925781 34.96875 16.84375 34.96875 17.972656 L 34.96875 31.371094 C 34.96875 32.5 34.054688 33.417969 32.921875 33.417969 Z M 32.921875 33.417969 " fill-opacity="1" fill-rule="nonzero"/></g><g fill="#000000" fill-opacity="1"><g transform="translate(79.061615, 41.947853)"><g><path d="M 10.40625 -18.421875 C 12.25 -18.421875 13.914062 -18.015625 15.40625 -17.203125 C 16.894531 -16.390625 18.066406 -15.273438 18.921875 -13.859375 C 19.773438 -12.453125 20.203125 -10.867188 20.203125 -9.109375 C 20.203125 -7.328125 19.773438 -5.71875 18.921875 -4.28125 C 18.066406 -2.851562 16.894531 -1.722656 15.40625 -0.890625 C 13.914062 -0.0664062 12.25 0.34375 10.40625 0.34375 C 8.5625 0.34375 6.890625 -0.0664062 5.390625 -0.890625 C 3.898438 -1.710938 2.726562 -2.84375 1.875 -4.28125 C 1.019531 -5.71875 0.59375 -7.328125 0.59375 -9.109375 C 0.59375 -10.867188 1.019531 -12.453125 1.875 -13.859375 C 2.726562 -15.273438 3.898438 -16.390625 5.390625 -17.203125 C 6.890625 -18.015625 8.5625 -18.421875 10.40625 -18.421875 Z M 10.453125 -14.40625 C 9.554688 -14.40625 8.722656 -14.171875 7.953125 -13.703125 C 7.191406 -13.242188 6.582031 -12.601562 6.125 -11.78125 C 5.675781 -10.96875 5.453125 -10.066406 5.453125 -9.078125 C 5.453125 -8.078125 5.679688 -7.164062 6.140625 -6.34375 C 6.597656 -5.53125 7.207031 -4.882812 7.96875 -4.40625 C 8.726562 -3.9375 9.554688 -3.703125 10.453125 -3.703125 C 11.347656 -3.703125 12.171875 -3.9375 12.921875 -4.40625 C 13.671875 -4.882812 14.257812 -5.53125 14.6875 -6.34375 C 15.125 -7.164062 15.34375 -8.078125 15.34375 -9.078125 C 15.34375 -10.066406 15.125 -10.96875 14.6875 -11.78125 C 14.257812 -12.601562 13.671875 -13.242188 12.921875 -13.703125 C 12.171875 -14.171875 11.347656 -14.40625 10.453125 -14.40625 Z M 10.453125 -14.40625 "/></g></g></g><g fill="#000000" fill-opacity="1"><g transform="translate(99.858783, 41.947853)"><g><path d="M 14.171875 -7.21875 L 14.15625 -18.140625 L 18.546875 -18.140625 L 18.546875 0 L 14.40625 0 L 6.1875 -10.84375 L 6.1875 0 L 1.765625 0 L 1.765625 -18.140625 L 5.921875 -18.140625 Z M 14.171875 -7.21875 "/></g></g></g><g fill="#000000" fill-opacity="1"><g transform="translate(120.190346, 41.947853)"><g><path d="M 1.765625 0 L 1.765625 -18.140625 L 15.3125 -18.140625 L 15.296875 -14.359375 L 6.5 -14.359375 L 6.5 -10.328125 L 14.625 -10.328125 L 14.625 -6.546875 L 6.5 -6.546875 L 6.5 0 Z M 1.765625 0 "/></g></g></g><g fill="#000000" fill-opacity="1"><g transform="translate(135.891697, 41.947853)"><g><path d="M 1.765625 0 L 1.765625 -18.140625 L 6.5 -18.140625 L 6.5 0 Z M 1.765625 0 "/></g></g></g><g fill="#000000" fill-opacity="1"><g transform="translate(144.143314, 41.947853)"><g><path d="M 14.875 -11.984375 C 14.289062 -12.722656 13.59375 -13.3125 12.78125 -13.75 C 11.96875 -14.1875 11.164062 -14.40625 10.375 -14.40625 C 9.457031 -14.40625 8.625 -14.175781 7.875 -13.71875 C 7.125 -13.269531 6.53125 -12.644531 6.09375 -11.84375 C 5.664062 -11.039062 5.453125 -10.144531 5.453125 -9.15625 C 5.453125 -8.175781 5.664062 -7.285156 6.09375 -6.484375 C 6.53125 -5.679688 7.125 -5.050781 7.875 -4.59375 C 8.625 -4.132812 9.457031 -3.90625 10.375 -3.90625 C 11.113281 -3.90625 11.890625 -4.09375 12.703125 -4.46875 C 13.515625 -4.851562 14.238281 -5.375 14.875 -6.03125 L 17.640625 -3.046875 C 16.660156 -2.015625 15.492188 -1.191406 14.140625 -0.578125 C 12.785156 0.0351562 11.441406 0.34375 10.109375 0.34375 C 8.316406 0.34375 6.695312 -0.0664062 5.25 -0.890625 C 3.800781 -1.722656 2.660156 -2.851562 1.828125 -4.28125 C 1.003906 -5.71875 0.59375 -7.328125 0.59375 -9.109375 C 0.59375 -10.867188 1.015625 -12.453125 1.859375 -13.859375 C 2.703125 -15.273438 3.863281 -16.390625 5.34375 -17.203125 C 6.820312 -18.015625 8.472656 -18.421875 10.296875 -18.421875 C 11.640625 -18.421875 12.96875 -18.140625 14.28125 -17.578125 C 15.59375 -17.015625 16.707031 -16.253906 17.625 -15.296875 Z M 14.875 -11.984375 "/></g></g></g><g fill="#000000" fill-opacity="1"><g transform="translate(162.043369, 41.947853)"><g><path d="M 1.765625 0 L 1.765625 -18.140625 L 6.5 -18.140625 L 6.5 0 Z M 1.765625 0 "/></g></g></g><g fill="#000000" fill-opacity="1"><g transform="translate(170.294987, 41.947853)"><g><path d="M 14.171875 -7.21875 L 14.15625 -18.140625 L 18.546875 -18.140625 L 18.546875 0 L 14.40625 0 L 6.1875 -10.84375 L 6.1875 0 L 1.765625 0 L 1.765625 -18.140625 L 5.921875 -18.140625 Z M 14.171875 -7.21875 "/></g></g></g><g fill="#000000" fill-opacity="1"><g transform="translate(190.626549, 41.947853)"><g><path d="M 20.125 0 L 15.078125 0 L 13.84375 -3.203125 L 6 -3.203125 L 4.734375 0 L -0.125 0 L 7.65625 -18.140625 L 12.53125 -18.140625 Z M 9.96875 -13.296875 L 7.421875 -6.828125 L 12.453125 -6.828125 Z M 9.96875 -13.296875 "/></g></g></g></svg>