<svg xmlns="http://www.w3.org/2000/svg" xmlns:xlink="http://www.w3.org/1999/xlink" width="278" zoomAndPan="magnify" viewBox="0 0 208.5 72.749999" height="97" preserveAspectRatio="xMidYMid meet" version="1.0"><defs><g/><clipPath id="d6647cd8e1"><path d="M 0.109375 0 L 207.894531 0 L 207.894531 72.5 L 0.109375 72.5 Z M 0.109375 0 " clip-rule="nonzero"/></clipPath></defs><g clip-path="url(#d6647cd8e1)"><path fill="#ffffff" d="M 0.109375 0 L 207.894531 0 L 207.894531 72.5 L 0.109375 72.5 Z M 0.109375 0 " fill-opacity="1" fill-rule="nonzero"/></g><g fill="#000000" fill-opacity="1"><g transform="translate(21.628552, 47.451981)"><g><path d="M 12.984375 -22.984375 C 15.285156 -22.984375 17.363281 -22.476562 19.21875 -21.46875 C 21.082031 -20.457031 22.546875 -19.066406 23.609375 -17.296875 C 24.679688 -15.535156 25.21875 -13.554688 25.21875 -11.359375 C 25.21875 -9.140625 24.679688 -7.132812 23.609375 -5.34375 C 22.546875 -3.5625 21.082031 -2.15625 19.21875 -1.125 C 17.363281 -0.09375 15.285156 0.421875 12.984375 0.421875 C 10.671875 0.421875 8.582031 -0.0859375 6.71875 -1.109375 C 4.863281 -2.128906 3.40625 -3.535156 2.34375 -5.328125 C 1.28125 -7.128906 0.75 -9.140625 0.75 -11.359375 C 0.75 -13.554688 1.28125 -15.535156 2.34375 -17.296875 C 3.40625 -19.066406 4.863281 -20.457031 6.71875 -21.46875 C 8.582031 -22.476562 10.671875 -22.984375 12.984375 -22.984375 Z M 13.046875 -17.984375 C 11.921875 -17.984375 10.878906 -17.691406 9.921875 -17.109375 C 8.960938 -16.523438 8.203125 -15.722656 7.640625 -14.703125 C 7.085938 -13.679688 6.8125 -12.554688 6.8125 -11.328125 C 6.8125 -10.078125 7.09375 -8.941406 7.65625 -7.921875 C 8.226562 -6.898438 8.988281 -6.09375 9.9375 -5.5 C 10.882812 -4.90625 11.921875 -4.609375 13.046875 -4.609375 C 14.160156 -4.609375 15.1875 -4.90625 16.125 -5.5 C 17.0625 -6.09375 17.796875 -6.898438 18.328125 -7.921875 C 18.867188 -8.941406 19.140625 -10.078125 19.140625 -11.328125 C 19.140625 -12.554688 18.867188 -13.679688 18.328125 -14.703125 C 17.796875 -15.722656 17.0625 -16.523438 16.125 -17.109375 C 15.1875 -17.691406 14.160156 -17.984375 13.046875 -17.984375 Z M 13.046875 -17.984375 "/></g></g></g><g fill="#000000" fill-opacity="1"><g transform="translate(47.581494, 47.451981)"><g><path d="M 17.6875 -9 L 17.65625 -22.625 L 23.140625 -22.625 L 23.140625 0 L 17.984375 0 L 7.71875 -13.53125 L 7.71875 0 L 2.1875 0 L 2.1875 -22.625 L 7.390625 -22.625 Z M 17.6875 -9 "/></g></g></g><g fill="#000000" fill-opacity="1"><g transform="translate(72.953403, 47.451981)"><g><path d="M 2.1875 0 L 2.1875 -22.625 L 19.109375 -22.625 L 19.078125 -17.921875 L 8.109375 -17.921875 L 8.109375 -12.875 L 18.234375 -12.875 L 18.234375 -8.171875 L 8.109375 -8.171875 L 8.109375 0 Z M 2.1875 0 "/></g></g></g><g fill="#000000" fill-opacity="1"><g transform="translate(92.547237, 47.451981)"><g><path d="M 2.1875 0 L 2.1875 -22.625 L 8.109375 -22.625 L 8.109375 0 Z M 2.1875 0 "/></g></g></g><g fill="#000000" fill-opacity="1"><g transform="translate(102.844492, 47.451981)"><g><path d="M 18.5625 -14.953125 C 17.832031 -15.867188 16.957031 -16.601562 15.9375 -17.15625 C 14.925781 -17.707031 13.925781 -17.984375 12.9375 -17.984375 C 11.800781 -17.984375 10.765625 -17.695312 9.828125 -17.125 C 8.890625 -16.550781 8.148438 -15.765625 7.609375 -14.765625 C 7.078125 -13.765625 6.8125 -12.648438 6.8125 -11.421875 C 6.8125 -10.203125 7.078125 -9.085938 7.609375 -8.078125 C 8.148438 -7.078125 8.890625 -6.289062 9.828125 -5.71875 C 10.765625 -5.15625 11.800781 -4.875 12.9375 -4.875 C 13.863281 -4.875 14.832031 -5.109375 15.84375 -5.578125 C 16.863281 -6.054688 17.769531 -6.703125 18.5625 -7.515625 L 22.015625 -3.8125 C 20.785156 -2.519531 19.328125 -1.488281 17.640625 -0.71875 C 15.953125 0.0390625 14.28125 0.421875 12.625 0.421875 C 10.382812 0.421875 8.359375 -0.09375 6.546875 -1.125 C 4.742188 -2.15625 3.328125 -3.5625 2.296875 -5.34375 C 1.265625 -7.132812 0.75 -9.140625 0.75 -11.359375 C 0.75 -13.554688 1.273438 -15.535156 2.328125 -17.296875 C 3.378906 -19.066406 4.820312 -20.457031 6.65625 -21.46875 C 8.5 -22.476562 10.5625 -22.984375 12.84375 -22.984375 C 14.519531 -22.984375 16.175781 -22.632812 17.8125 -21.9375 C 19.445312 -21.238281 20.835938 -20.285156 21.984375 -19.078125 Z M 18.5625 -14.953125 "/></g></g></g><g fill="#000000" fill-opacity="1"><g transform="translate(125.182105, 47.451981)"><g><path d="M 2.1875 0 L 2.1875 -22.625 L 8.109375 -22.625 L 8.109375 0 Z M 2.1875 0 "/></g></g></g><g fill="#000000" fill-opacity="1"><g transform="translate(135.47936, 47.451981)"><g><path d="M 17.6875 -9 L 17.65625 -22.625 L 23.140625 -22.625 L 23.140625 0 L 17.984375 0 L 7.71875 -13.53125 L 7.71875 0 L 2.1875 0 L 2.1875 -22.625 L 7.390625 -22.625 Z M 17.6875 -9 "/></g></g></g><g fill="#000000" fill-opacity="1"><g transform="translate(160.851269, 47.451981)"><g><path d="M 25.109375 0 L 18.8125 0 L 17.265625 -4 L 7.484375 -4 L 5.90625 0 L -0.15625 0 L 9.5625 -22.625 L 15.625 -22.625 Z M 12.421875 -16.59375 L 9.265625 -8.515625 L 15.53125 -8.515625 Z M 12.421875 -16.59375 "/></g></g></g><g fill="#000000" fill-opacity="1"><g transform="translate(34.294557, 65.893089)"><g><path d="M 3.671875 0.140625 C 5.347656 0.140625 6.433594 -0.679688 6.433594 -2.015625 C 6.433594 -3.144531 5.675781 -3.824219 3.714844 -4.304688 C 2.222656 -4.667969 1.730469 -5.0625 1.730469 -5.699219 C 1.730469 -6.433594 2.390625 -6.890625 3.484375 -6.890625 C 4.613281 -6.890625 5.3125 -6.324219 5.335938 -5.402344 L 6.289062 -5.402344 C 6.277344 -6.890625 5.203125 -7.8125 3.484375 -7.8125 C 1.808594 -7.8125 0.746094 -6.992188 0.746094 -5.699219 C 0.746094 -4.515625 1.589844 -3.855469 3.472656 -3.40625 C 4.855469 -3.078125 5.433594 -2.695312 5.433594 -1.984375 C 5.433594 -1.226562 4.753906 -0.777344 3.671875 -0.777344 C 2.476562 -0.777344 1.644531 -1.371094 1.621094 -2.355469 L 0.65625 -2.355469 C 0.667969 -0.855469 1.839844 0.140625 3.671875 0.140625 Z M 3.671875 0.140625 "/></g></g></g><g fill="#000000" fill-opacity="1"><g transform="translate(43.454062, 65.893089)"><g><path d="M 3.289062 0.140625 C 4.042969 0.140625 4.777344 -0.164062 5.269531 -0.832031 L 5.367188 0 L 6.125 0 L 6.125 -5.6875 L 5.203125 -5.6875 L 5.203125 -2.816406 C 5.203125 -1.578125 4.46875 -0.746094 3.40625 -0.746094 C 2.433594 -0.746094 1.828125 -1.46875 1.828125 -2.609375 L 1.828125 -5.6875 L 0.910156 -5.6875 L 0.910156 -2.519531 C 0.910156 -0.898438 1.796875 0.140625 3.289062 0.140625 Z M 3.289062 0.140625 "/></g></g></g><g fill="#000000" fill-opacity="1"><g transform="translate(52.668333, 65.893089)"><g><path d="M 2.882812 0.0859375 C 3.800781 0.0859375 4.523438 -0.207031 5.039062 -0.789062 L 5.140625 0 L 5.894531 0 L 5.894531 -3.617188 C 5.894531 -4.929688 4.898438 -5.828125 3.40625 -5.828125 C 2.167969 -5.828125 1.238281 -5.160156 0.984375 -4.066406 L 1.917969 -4.066406 C 2.105469 -4.625 2.683594 -4.976562 3.417969 -4.976562 C 4.382812 -4.976562 4.976562 -4.4375 4.976562 -3.550781 L 4.976562 -3.34375 L 2.652344 -3.34375 C 1.46875 -3.34375 0.691406 -2.671875 0.691406 -1.644531 C 0.691406 -0.570312 1.511719 0.0859375 2.882812 0.0859375 Z M 1.609375 -1.65625 C 1.609375 -2.191406 2.050781 -2.53125 2.683594 -2.53125 L 4.984375 -2.53125 C 4.953125 -1.480469 4.097656 -0.734375 2.914062 -0.734375 C 2.113281 -0.734375 1.609375 -1.097656 1.609375 -1.65625 Z M 1.609375 -1.65625 "/></g></g></g><g fill="#000000" fill-opacity="1"><g transform="translate(61.532062, 65.893089)"><g/></g></g><g fill="#000000" fill-opacity="1"><g transform="translate(66.320686, 65.893089)"><g><path d="M 4.601562 0.140625 C 6.9375 0.140625 8.578125 -1.5 8.578125 -3.835938 C 8.578125 -6.167969 6.9375 -7.8125 4.601562 -7.8125 C 2.269531 -7.8125 0.636719 -6.167969 0.636719 -3.835938 C 0.636719 -1.5 2.269531 0.140625 4.601562 0.140625 Z M 1.621094 -3.835938 C 1.621094 -5.621094 2.839844 -6.847656 4.601562 -6.847656 C 6.367188 -6.847656 7.582031 -5.621094 7.582031 -3.835938 C 7.582031 -2.050781 6.367188 -0.820312 4.601562 -0.820312 C 2.839844 -0.820312 1.621094 -2.050781 1.621094 -3.835938 Z M 1.621094 -3.835938 "/></g></g></g><g fill="#000000" fill-opacity="1"><g transform="translate(77.59442, 65.893089)"><g><path d="M 1.566406 -6.269531 L 1.566406 -5.6875 L 0.328125 -5.6875 L 0.328125 -4.84375 L 1.566406 -4.84375 L 1.566406 0 L 2.488281 0 L 2.488281 -4.84375 L 4.46875 -4.84375 L 4.46875 -5.6875 L 2.488281 -5.6875 L 2.488281 -6.210938 C 2.488281 -7.035156 2.839844 -7.386719 3.636719 -7.386719 L 4.523438 -7.386719 L 4.523438 -8.25 L 3.550781 -8.25 C 2.269531 -8.25 1.566406 -7.5625 1.566406 -6.269531 Z M 1.566406 -6.269531 "/></g></g></g><g fill="#000000" fill-opacity="1"><g transform="translate(84.30009, 65.893089)"><g><path d="M 1.019531 0 L 1.9375 0 L 1.9375 -5.6875 L 1.019531 -5.6875 Z M 0.734375 -7.339844 C 0.734375 -6.9375 1.03125 -6.628906 1.480469 -6.628906 C 1.929688 -6.628906 2.214844 -6.9375 2.214844 -7.339844 C 2.214844 -7.757812 1.929688 -8.066406 1.480469 -8.066406 C 1.03125 -8.066406 0.734375 -7.757812 0.734375 -7.339844 Z M 0.734375 -7.339844 "/></g></g></g><g fill="#000000" fill-opacity="1"><g transform="translate(89.329708, 65.893089)"><g><path d="M 3.496094 0.140625 C 4.917969 0.140625 6.027344 -0.710938 6.410156 -2.09375 L 5.433594 -2.09375 C 5.148438 -1.269531 4.414062 -0.746094 3.496094 -0.746094 C 2.324219 -0.746094 1.488281 -1.609375 1.488281 -2.847656 C 1.488281 -4.074219 2.324219 -4.953125 3.496094 -4.953125 C 4.359375 -4.953125 5.074219 -4.480469 5.414062 -3.691406 L 6.34375 -3.691406 C 6.058594 -4.976562 4.910156 -5.828125 3.496094 -5.828125 C 1.785156 -5.828125 0.570312 -4.582031 0.570312 -2.847656 C 0.570312 -1.105469 1.785156 0.140625 3.496094 0.140625 Z M 3.496094 0.140625 "/></g></g></g><g fill="#000000" fill-opacity="1"><g transform="translate(98.346797, 65.893089)"><g><path d="M 1.019531 0 L 1.9375 0 L 1.9375 -5.6875 L 1.019531 -5.6875 Z M 0.734375 -7.339844 C 0.734375 -6.9375 1.03125 -6.628906 1.480469 -6.628906 C 1.929688 -6.628906 2.214844 -6.9375 2.214844 -7.339844 C 2.214844 -7.757812 1.929688 -8.066406 1.480469 -8.066406 C 1.03125 -8.066406 0.734375 -7.757812 0.734375 -7.339844 Z M 0.734375 -7.339844 "/></g></g></g><g fill="#000000" fill-opacity="1"><g transform="translate(103.376415, 65.893089)"><g><path d="M 1.019531 0 L 1.9375 0 L 1.9375 -2.871094 C 1.9375 -4.121094 2.695312 -4.953125 3.757812 -4.953125 C 4.753906 -4.953125 5.367188 -4.230469 5.367188 -3.078125 L 5.367188 0 L 6.289062 0 L 6.289062 -3.167969 C 6.289062 -4.789062 5.390625 -5.828125 3.878906 -5.828125 C 3.113281 -5.828125 2.367188 -5.535156 1.875 -4.855469 L 1.773438 -5.6875 L 1.019531 -5.6875 Z M 1.019531 0 "/></g></g></g><g fill="#000000" fill-opacity="1"><g transform="translate(112.645461, 65.893089)"><g><path d="M 2.882812 0.0859375 C 3.800781 0.0859375 4.523438 -0.207031 5.039062 -0.789062 L 5.140625 0 L 5.894531 0 L 5.894531 -3.617188 C 5.894531 -4.929688 4.898438 -5.828125 3.40625 -5.828125 C 2.167969 -5.828125 1.238281 -5.160156 0.984375 -4.066406 L 1.917969 -4.066406 C 2.105469 -4.625 2.683594 -4.976562 3.417969 -4.976562 C 4.382812 -4.976562 4.976562 -4.4375 4.976562 -3.550781 L 4.976562 -3.34375 L 2.652344 -3.34375 C 1.46875 -3.34375 0.691406 -2.671875 0.691406 -1.644531 C 0.691406 -0.570312 1.511719 0.0859375 2.882812 0.0859375 Z M 1.609375 -1.65625 C 1.609375 -2.191406 2.050781 -2.53125 2.683594 -2.53125 L 4.984375 -2.53125 C 4.953125 -1.480469 4.097656 -0.734375 2.914062 -0.734375 C 2.113281 -0.734375 1.609375 -1.097656 1.609375 -1.65625 Z M 1.609375 -1.65625 "/></g></g></g><g fill="#000000" fill-opacity="1"><g transform="translate(121.509189, 65.893089)"><g/></g></g><g fill="#000000" fill-opacity="1"><g transform="translate(126.29781, 65.893089)"><g><path d="M 4.601562 0.140625 C 6.9375 0.140625 8.578125 -1.5 8.578125 -3.835938 C 8.578125 -6.167969 6.9375 -7.8125 4.601562 -7.8125 C 2.269531 -7.8125 0.636719 -6.167969 0.636719 -3.835938 C 0.636719 -1.5 2.269531 0.140625 4.601562 0.140625 Z M 1.621094 -3.835938 C 1.621094 -5.621094 2.839844 -6.847656 4.601562 -6.847656 C 6.367188 -6.847656 7.582031 -5.621094 7.582031 -3.835938 C 7.582031 -2.050781 6.367188 -0.820312 4.601562 -0.820312 C 2.839844 -0.820312 1.621094 -2.050781 1.621094 -3.835938 Z M 1.621094 -3.835938 "/></g></g></g><g fill="#000000" fill-opacity="1"><g transform="translate(137.571541, 65.893089)"><g><path d="M 1.019531 0 L 1.9375 0 L 1.9375 -2.871094 C 1.9375 -4.121094 2.695312 -4.953125 3.757812 -4.953125 C 4.753906 -4.953125 5.367188 -4.230469 5.367188 -3.078125 L 5.367188 0 L 6.289062 0 L 6.289062 -3.167969 C 6.289062 -4.789062 5.390625 -5.828125 3.878906 -5.828125 C 3.113281 -5.828125 2.367188 -5.535156 1.875 -4.855469 L 1.773438 -5.6875 L 1.019531 -5.6875 Z M 1.019531 0 "/></g></g></g><g fill="#000000" fill-opacity="1"><g transform="translate(146.840588, 65.893089)"><g><path d="M 1.019531 0 L 1.9375 0 L 1.9375 -8.109375 L 1.019531 -8.109375 Z M 1.019531 0 "/></g></g></g><g fill="#000000" fill-opacity="1"><g transform="translate(151.870205, 65.893089)"><g><path d="M 1.019531 0 L 1.9375 0 L 1.9375 -5.6875 L 1.019531 -5.6875 Z M 0.734375 -7.339844 C 0.734375 -6.9375 1.03125 -6.628906 1.480469 -6.628906 C 1.929688 -6.628906 2.214844 -6.9375 2.214844 -7.339844 C 2.214844 -7.757812 1.929688 -8.066406 1.480469 -8.066406 C 1.03125 -8.066406 0.734375 -7.757812 0.734375 -7.339844 Z M 0.734375 -7.339844 "/></g></g></g><g fill="#000000" fill-opacity="1"><g transform="translate(156.899823, 65.893089)"><g><path d="M 1.019531 0 L 1.9375 0 L 1.9375 -2.871094 C 1.9375 -4.121094 2.695312 -4.953125 3.757812 -4.953125 C 4.753906 -4.953125 5.367188 -4.230469 5.367188 -3.078125 L 5.367188 0 L 6.289062 0 L 6.289062 -3.167969 C 6.289062 -4.789062 5.390625 -5.828125 3.878906 -5.828125 C 3.113281 -5.828125 2.367188 -5.535156 1.875 -4.855469 L 1.773438 -5.6875 L 1.019531 -5.6875 Z M 1.019531 0 "/></g></g></g><g fill="#000000" fill-opacity="1"><g transform="translate(166.16887, 65.893089)"><g><path d="M 3.484375 0.140625 C 4.765625 0.140625 5.816406 -0.546875 6.277344 -1.65625 L 5.238281 -1.65625 C 4.886719 -1.050781 4.242188 -0.722656 3.496094 -0.722656 C 2.410156 -0.722656 1.644531 -1.402344 1.5 -2.476562 L 6.421875 -2.476562 C 6.488281 -4.460938 5.3125 -5.828125 3.496094 -5.828125 C 1.773438 -5.828125 0.570312 -4.601562 0.570312 -2.847656 C 0.570312 -1.085938 1.765625 0.140625 3.484375 0.140625 Z M 1.511719 -3.289062 C 1.675781 -4.296875 2.445312 -4.964844 3.496094 -4.964844 C 4.535156 -4.964844 5.304688 -4.328125 5.5 -3.289062 Z M 1.511719 -3.289062 "/></g></g></g></svg>