<svg xmlns="http://www.w3.org/2000/svg" xmlns:xlink="http://www.w3.org/1999/xlink" width="291" zoomAndPan="magnify" viewBox="0 0 218.25 274.5" height="366" preserveAspectRatio="xMidYMid meet" version="1.0"><defs><g/><clipPath id="6a9eab329f"><path d="M 8.21875 0.222656 L 208.53125 0.222656 L 208.53125 200.53125 L 8.21875 200.53125 Z M 8.21875 0.222656 " clip-rule="nonzero"/></clipPath><clipPath id="2d71341eab"><path d="M 59.183594 65 L 157.84375 65 L 157.84375 152.53125 L 59.183594 152.53125 Z M 59.183594 65 " clip-rule="nonzero"/></clipPath><clipPath id="2b22a9b44a"><path d="M 102 48.636719 L 115 48.636719 L 115 102 L 102 102 Z M 102 48.636719 " clip-rule="nonzero"/></clipPath></defs><g clip-path="url(#6a9eab329f)"><path fill="#4157ff" d="M 208.03125 117.132812 C 208.445312 103.601562 208.445312 103.578125 208.859375 90.050781 L 187.90625 81.882812 C 184.886719 73.902344 183.375 69.898438 180.351562 61.917969 L 190.625 41.90625 C 181.34375 32.078125 181.320312 32.050781 172.039062 22.195312 L 151.46875 31.222656 L 132.035156 22.445312 L 125.132812 1.046875 L 98.078125 0.222656 L 89.878906 21.171875 C 81.925781 24.195312 77.898438 25.703125 69.949219 28.726562 L 49.933594 18.464844 C 40.074219 27.714844 40.050781 27.746094 30.191406 37.019531 L 39.21875 57.613281 C 35.742188 65.371094 33.976562 69.292969 30.46875 77.046875 L 9.046875 83.953125 C 8.632812 97.476562 8.632812 97.503906 8.21875 111.003906 L 29.171875 119.203125 C 32.191406 127.152344 33.703125 131.183594 36.726562 139.160156 L 26.464844 159.148438 C 35.742188 169.003906 35.769531 169.035156 45.019531 178.886719 L 65.609375 169.859375 C 73.398438 173.339844 77.316406 175.101562 85.074219 178.609375 L 91.949219 200.035156 L 119.042969 200.859375 L 127.210938 179.910156 C 135.191406 176.886719 139.191406 175.375 147.171875 172.351562 L 167.183594 182.625 L 186.894531 164.070312 L 177.867188 143.480469 C 181.394531 135.722656 183.144531 131.773438 186.648438 124.015625 Z M 108.539062 159.402344 C 106.613281 159.402344 104.6875 159.308594 102.769531 159.117188 C 100.851562 158.929688 98.949219 158.644531 97.058594 158.269531 C 95.167969 157.894531 93.300781 157.425781 91.453125 156.867188 C 89.609375 156.304688 87.796875 155.65625 86.015625 154.921875 C 84.234375 154.183594 82.496094 153.359375 80.796875 152.449219 C 79.097656 151.542969 77.445312 150.550781 75.84375 149.480469 C 74.238281 148.410156 72.691406 147.261719 71.203125 146.039062 C 69.714844 144.816406 68.285156 143.523438 66.921875 142.160156 C 65.5625 140.796875 64.269531 139.371094 63.046875 137.882812 C 61.824219 136.390625 60.675781 134.84375 59.605469 133.242188 C 58.535156 131.640625 57.542969 129.988281 56.636719 128.289062 C 55.726562 126.585938 54.902344 124.847656 54.167969 123.066406 C 53.429688 121.285156 52.78125 119.472656 52.222656 117.628906 C 51.660156 115.785156 51.195312 113.917969 50.816406 112.027344 C 50.441406 110.136719 50.160156 108.230469 49.96875 106.3125 C 49.78125 104.394531 49.6875 102.472656 49.6875 100.542969 C 49.6875 98.617188 49.78125 96.691406 49.972656 94.773438 C 50.160156 92.855469 50.441406 90.953125 50.820312 89.0625 C 51.195312 87.171875 51.664062 85.304688 52.222656 83.460938 C 52.78125 81.613281 53.429688 79.800781 54.167969 78.019531 C 54.90625 76.238281 55.730469 74.5 56.636719 72.800781 C 57.546875 71.101562 58.535156 69.449219 59.605469 67.847656 C 60.675781 66.242188 61.824219 64.695312 63.046875 63.207031 C 64.269531 61.714844 65.5625 60.289062 66.925781 58.925781 C 68.289062 57.5625 69.714844 56.269531 71.207031 55.046875 C 72.695312 53.824219 74.242188 52.679688 75.84375 51.609375 C 77.449219 50.535156 79.097656 49.546875 80.796875 48.636719 C 82.5 47.730469 84.238281 46.90625 86.019531 46.167969 C 87.800781 45.429688 89.613281 44.78125 91.457031 44.222656 C 93.300781 43.664062 95.171875 43.195312 97.058594 42.820312 C 98.949219 42.445312 100.855469 42.160156 102.773438 41.972656 C 104.691406 41.78125 106.613281 41.6875 108.542969 41.6875 C 110.46875 41.6875 112.394531 41.78125 114.3125 41.972656 C 116.230469 42.160156 118.132812 42.441406 120.023438 42.820312 C 121.914062 43.195312 123.78125 43.664062 125.628906 44.222656 C 127.472656 44.78125 129.285156 45.429688 131.066406 46.167969 C 132.847656 46.90625 134.585938 47.726562 136.285156 48.636719 C 137.988281 49.546875 139.636719 50.535156 141.242188 51.605469 C 142.84375 52.675781 144.390625 53.824219 145.878906 55.046875 C 147.371094 56.269531 148.796875 57.5625 150.160156 58.925781 C 151.523438 60.289062 152.816406 61.714844 154.039062 63.203125 C 155.261719 64.695312 156.410156 66.242188 157.480469 67.84375 C 158.550781 69.445312 159.539062 71.097656 160.449219 72.796875 C 161.359375 74.496094 162.179688 76.238281 162.917969 78.019531 C 163.65625 79.796875 164.304688 81.609375 164.863281 83.457031 C 165.425781 85.300781 165.894531 87.167969 166.269531 89.058594 C 166.644531 90.949219 166.929688 92.851562 167.117188 94.769531 C 167.304688 96.691406 167.402344 98.613281 167.402344 100.539062 C 167.398438 102.46875 167.304688 104.390625 167.117188 106.308594 C 166.925781 108.226562 166.644531 110.132812 166.265625 112.023438 C 165.890625 113.914062 165.421875 115.78125 164.863281 117.625 C 164.304688 119.46875 163.652344 121.28125 162.917969 123.0625 C 162.179688 124.84375 161.355469 126.585938 160.445312 128.285156 C 159.539062 129.984375 158.546875 131.636719 157.476562 133.238281 C 156.40625 134.839844 155.257812 136.386719 154.035156 137.878906 C 152.8125 139.367188 151.519531 140.792969 150.15625 142.15625 C 148.792969 143.519531 147.367188 144.8125 145.875 146.035156 C 144.386719 147.257812 142.839844 148.40625 141.238281 149.476562 C 139.632812 150.546875 137.984375 151.539062 136.285156 152.445312 C 134.582031 153.355469 132.84375 154.179688 131.0625 154.917969 C 129.28125 155.65625 127.46875 156.304688 125.625 156.863281 C 123.78125 157.425781 121.910156 157.890625 120.019531 158.269531 C 118.128906 158.644531 116.226562 158.929688 114.308594 159.117188 C 112.390625 159.304688 110.464844 159.402344 108.539062 159.402344 Z M 108.539062 159.402344 " fill-opacity="1" fill-rule="nonzero"/></g><g clip-path="url(#2d71341eab)"><path fill="#4157ff" d="M 108.546875 152.398438 C 81.390625 152.398438 59.292969 130.300781 59.292969 103.144531 C 59.292969 89.570312 64.976562 76.464844 74.890625 67.183594 C 77.410156 64.835938 81.347656 64.96875 83.703125 67.476562 C 86.050781 69.988281 85.921875 73.929688 83.410156 76.285156 C 75.894531 83.316406 71.753906 92.855469 71.753906 103.144531 C 71.753906 123.433594 88.257812 139.9375 108.546875 139.9375 C 128.835938 139.9375 145.339844 123.433594 145.339844 103.144531 C 145.339844 93.089844 141.355469 83.691406 134.117188 76.695312 C 131.648438 74.304688 131.582031 70.355469 133.972656 67.882812 C 136.363281 65.417969 140.308594 65.339844 142.785156 67.738281 C 152.464844 77.105469 157.804688 89.679688 157.804688 103.144531 C 157.800781 130.300781 135.707031 152.398438 108.546875 152.398438 Z M 108.546875 152.398438 " fill-opacity="1" fill-rule="nonzero"/></g><g clip-path="url(#2b22a9b44a)"><path fill="#4157ff" d="M 108.546875 101.9375 C 105.101562 101.9375 102.316406 99.148438 102.316406 95.707031 L 102.316406 54.867188 C 102.316406 51.425781 105.101562 48.636719 108.546875 48.636719 C 111.992188 48.636719 114.78125 51.425781 114.78125 54.867188 L 114.78125 95.707031 C 114.777344 99.148438 111.992188 101.9375 108.546875 101.9375 Z M 108.546875 101.9375 " fill-opacity="1" fill-rule="nonzero"/></g><g fill="#000000" fill-opacity="1"><g transform="translate(26.449051, 248.170343)"><g><path d="M 12.984375 -22.984375 C 15.285156 -22.984375 17.363281 -22.476562 19.21875 -21.46875 C 21.082031 -20.457031 22.546875 -19.066406 23.609375 -17.296875 C 24.679688 -15.535156 25.21875 -13.554688 25.21875 -11.359375 C 25.21875 -9.140625 24.679688 -7.132812 23.609375 -5.34375 C 22.546875 -3.5625 21.082031 -2.15625 19.21875 -1.125 C 17.363281 -0.09375 15.285156 0.421875 12.984375 0.421875 C 10.671875 0.421875 8.582031 -0.0859375 6.71875 -1.109375 C 4.863281 -2.128906 3.40625 -3.535156 2.34375 -5.328125 C 1.28125 -7.128906 0.75 -9.140625 0.75 -11.359375 C 0.75 -13.554688 1.28125 -15.535156 2.34375 -17.296875 C 3.40625 -19.066406 4.863281 -20.457031 6.71875 -21.46875 C 8.582031 -22.476562 10.671875 -22.984375 12.984375 -22.984375 Z M 13.046875 -17.984375 C 11.921875 -17.984375 10.878906 -17.691406 9.921875 -17.109375 C 8.960938 -16.523438 8.203125 -15.722656 7.640625 -14.703125 C 7.085938 -13.679688 6.8125 -12.554688 6.8125 -11.328125 C 6.8125 -10.078125 7.09375 -8.941406 7.65625 -7.921875 C 8.226562 -6.898438 8.988281 -6.09375 9.9375 -5.5 C 10.882812 -4.90625 11.921875 -4.609375 13.046875 -4.609375 C 14.160156 -4.609375 15.1875 -4.90625 16.125 -5.5 C 17.0625 -6.09375 17.796875 -6.898438 18.328125 -7.921875 C 18.867188 -8.941406 19.140625 -10.078125 19.140625 -11.328125 C 19.140625 -12.554688 18.867188 -13.679688 18.328125 -14.703125 C 17.796875 -15.722656 17.0625 -16.523438 16.125 -17.109375 C 15.1875 -17.691406 14.160156 -17.984375 13.046875 -17.984375 Z M 13.046875 -17.984375 "/></g></g></g><g fill="#000000" fill-opacity="1"><g transform="translate(52.401993, 248.170343)"><g><path d="M 17.6875 -9 L 17.65625 -22.625 L 23.140625 -22.625 L 23.140625 0 L 17.984375 0 L 7.71875 -13.53125 L 7.71875 0 L 2.1875 0 L 2.1875 -22.625 L 7.390625 -22.625 Z M 17.6875 -9 "/></g></g></g><g fill="#000000" fill-opacity="1"><g transform="translate(77.773902, 248.170343)"><g><path d="M 2.1875 0 L 2.1875 -22.625 L 19.109375 -22.625 L 19.078125 -17.921875 L 8.109375 -17.921875 L 8.109375 -12.875 L 18.234375 -12.875 L 18.234375 -8.171875 L 8.109375 -8.171875 L 8.109375 0 Z M 2.1875 0 "/></g></g></g><g fill="#000000" fill-opacity="1"><g transform="translate(97.367736, 248.170343)"><g><path d="M 2.1875 0 L 2.1875 -22.625 L 8.109375 -22.625 L 8.109375 0 Z M 2.1875 0 "/></g></g></g><g fill="#000000" fill-opacity="1"><g transform="translate(107.664992, 248.170343)"><g><path d="M 18.5625 -14.953125 C 17.832031 -15.867188 16.957031 -16.601562 15.9375 -17.15625 C 14.925781 -17.707031 13.925781 -17.984375 12.9375 -17.984375 C 11.800781 -17.984375 10.765625 -17.695312 9.828125 -17.125 C 8.890625 -16.550781 8.148438 -15.765625 7.609375 -14.765625 C 7.078125 -13.765625 6.8125 -12.648438 6.8125 -11.421875 C 6.8125 -10.203125 7.078125 -9.085938 7.609375 -8.078125 C 8.148438 -7.078125 8.890625 -6.289062 9.828125 -5.71875 C 10.765625 -5.15625 11.800781 -4.875 12.9375 -4.875 C 13.863281 -4.875 14.832031 -5.109375 15.84375 -5.578125 C 16.863281 -6.054688 17.769531 -6.703125 18.5625 -7.515625 L 22.015625 -3.8125 C 20.785156 -2.519531 19.328125 -1.488281 17.640625 -0.71875 C 15.953125 0.0390625 14.28125 0.421875 12.625 0.421875 C 10.382812 0.421875 8.359375 -0.09375 6.546875 -1.125 C 4.742188 -2.15625 3.328125 -3.5625 2.296875 -5.34375 C 1.265625 -7.132812 0.75 -9.140625 0.75 -11.359375 C 0.75 -13.554688 1.273438 -15.535156 2.328125 -17.296875 C 3.378906 -19.066406 4.820312 -20.457031 6.65625 -21.46875 C 8.5 -22.476562 10.5625 -22.984375 12.84375 -22.984375 C 14.519531 -22.984375 16.175781 -22.632812 17.8125 -21.9375 C 19.445312 -21.238281 20.835938 -20.285156 21.984375 -19.078125 Z M 18.5625 -14.953125 "/></g></g></g><g fill="#000000" fill-opacity="1"><g transform="translate(130.002605, 248.170343)"><g><path d="M 2.1875 0 L 2.1875 -22.625 L 8.109375 -22.625 L 8.109375 0 Z M 2.1875 0 "/></g></g></g><g fill="#000000" fill-opacity="1"><g transform="translate(140.29986, 248.170343)"><g><path d="M 17.6875 -9 L 17.65625 -22.625 L 23.140625 -22.625 L 23.140625 0 L 17.984375 0 L 7.71875 -13.53125 L 7.71875 0 L 2.1875 0 L 2.1875 -22.625 L 7.390625 -22.625 Z M 17.6875 -9 "/></g></g></g><g fill="#000000" fill-opacity="1"><g transform="translate(165.671769, 248.170343)"><g><path d="M 25.109375 0 L 18.8125 0 L 17.265625 -4 L 7.484375 -4 L 5.90625 0 L -0.15625 0 L 9.5625 -22.625 L 15.625 -22.625 Z M 12.421875 -16.59375 L 9.265625 -8.515625 L 15.53125 -8.515625 Z M 12.421875 -16.59375 "/></g></g></g></svg>