<svg xmlns="http://www.w3.org/2000/svg" xmlns:xlink="http://www.w3.org/1999/xlink" width="317" zoomAndPan="magnify" viewBox="0 0 237.75 274.499992" height="366" preserveAspectRatio="xMidYMid meet" version="1.0"><defs><g/><clipPath id="ab00aa8884"><path d="M 17.898438 0 L 218.535156 0 L 218.535156 200.632812 L 17.898438 200.632812 Z M 17.898438 0 " clip-rule="nonzero"/></clipPath><clipPath id="0bab1785d7"><path d="M 69 65 L 167.765625 65 L 167.765625 152.554688 L 69 152.554688 Z M 69 65 " clip-rule="nonzero"/></clipPath><clipPath id="1a5176fcca"><path d="M 112 48.492188 L 125 48.492188 L 125 102 L 112 102 Z M 112 48.492188 " clip-rule="nonzero"/></clipPath></defs><g clip-path="url(#ab00aa8884)"><path fill="#4157ff" d="M 218.035156 117.101562 C 218.449219 103.546875 218.449219 103.523438 218.863281 89.976562 L 197.878906 81.792969 C 194.851562 73.800781 193.335938 69.789062 190.308594 61.796875 L 200.597656 41.75 C 191.304688 31.90625 191.277344 31.882812 181.984375 22.007812 L 161.378906 31.050781 L 141.914062 22.261719 L 135 0.828125 L 107.902344 0 L 99.691406 20.984375 C 91.726562 24.011719 87.6875 25.523438 79.726562 28.550781 L 59.683594 18.273438 C 49.808594 27.539062 49.78125 27.570312 39.910156 36.855469 L 48.949219 57.484375 C 45.46875 65.253906 43.699219 69.183594 40.1875 76.949219 L 18.726562 83.867188 C 18.3125 97.414062 18.3125 97.4375 17.898438 110.960938 L 38.882812 119.175781 C 41.910156 127.136719 43.425781 131.171875 46.453125 139.164062 L 36.175781 159.183594 C 45.46875 169.054688 45.492188 169.085938 54.757812 178.953125 L 75.382812 169.910156 C 83.183594 173.398438 87.109375 175.164062 94.878906 178.675781 L 101.765625 200.132812 L 128.902344 200.960938 L 137.085938 179.976562 C 145.078125 176.949219 149.082031 175.4375 157.074219 172.410156 L 177.121094 182.699219 L 196.863281 164.113281 L 187.820312 143.488281 C 191.355469 135.71875 193.105469 131.761719 196.617188 123.992188 Z M 118.382812 159.4375 C 116.449219 159.4375 114.523438 159.34375 112.601562 159.152344 C 110.679688 158.964844 108.773438 158.679688 106.878906 158.304688 C 104.988281 157.925781 103.117188 157.457031 101.269531 156.898438 C 99.421875 156.335938 97.605469 155.6875 95.824219 154.949219 C 94.039062 154.210938 92.296875 153.386719 90.59375 152.476562 C 88.890625 151.566406 87.238281 150.574219 85.632812 149.5 C 84.027344 148.425781 82.476562 147.277344 80.984375 146.054688 C 79.492188 144.828125 78.0625 143.535156 76.699219 142.167969 C 75.332031 140.804688 74.039062 139.375 72.8125 137.882812 C 71.589844 136.390625 70.441406 134.839844 69.367188 133.234375 C 68.296875 131.628906 67.304688 129.976562 66.394531 128.273438 C 65.484375 126.570312 64.660156 124.828125 63.921875 123.042969 C 63.183594 121.261719 62.53125 119.445312 61.972656 117.597656 C 61.410156 115.75 60.945312 113.878906 60.566406 111.984375 C 60.191406 110.089844 59.90625 108.183594 59.71875 106.261719 C 59.527344 104.339844 59.433594 102.414062 59.433594 100.484375 C 59.433594 98.554688 59.527344 96.628906 59.71875 94.707031 C 59.90625 92.785156 60.191406 90.878906 60.566406 88.984375 C 60.945312 87.089844 61.414062 85.21875 61.972656 83.371094 C 62.535156 81.523438 63.183594 79.710938 63.921875 77.925781 C 64.660156 76.140625 65.484375 74.398438 66.394531 72.695312 C 67.304688 70.992188 68.296875 69.339844 69.371094 67.734375 C 70.441406 66.128906 71.589844 64.578125 72.816406 63.085938 C 74.039062 61.59375 75.335938 60.167969 76.699219 58.800781 C 78.066406 57.4375 79.496094 56.140625 80.988281 54.917969 C 82.480469 53.691406 84.027344 52.542969 85.632812 51.46875 C 87.238281 50.398438 88.894531 49.40625 90.597656 48.496094 C 92.296875 47.585938 94.042969 46.761719 95.824219 46.023438 C 97.609375 45.285156 99.425781 44.632812 101.273438 44.074219 C 103.121094 43.511719 104.992188 43.042969 106.882812 42.667969 C 108.777344 42.289062 110.683594 42.007812 112.605469 41.820312 C 114.527344 41.628906 116.453125 41.535156 118.382812 41.535156 C 120.316406 41.535156 122.242188 41.628906 124.164062 41.816406 C 126.082031 42.007812 127.992188 42.289062 129.886719 42.667969 C 131.777344 43.042969 133.648438 43.511719 135.496094 44.074219 C 137.34375 44.632812 139.160156 45.28125 140.945312 46.019531 C 142.726562 46.757812 144.46875 47.585938 146.171875 48.496094 C 147.875 49.402344 149.53125 50.394531 151.136719 51.46875 C 152.742188 52.539062 154.289062 53.6875 155.78125 54.914062 C 157.273438 56.136719 158.703125 57.433594 160.070312 58.796875 C 161.433594 60.164062 162.730469 61.59375 163.953125 63.085938 C 165.179688 64.578125 166.328125 66.125 167.398438 67.730469 C 168.472656 69.335938 169.464844 70.992188 170.375 72.691406 C 171.285156 74.394531 172.109375 76.140625 172.847656 77.921875 C 173.585938 79.707031 174.238281 81.523438 174.796875 83.367188 C 175.359375 85.214844 175.828125 87.085938 176.203125 88.980469 C 176.582031 90.875 176.863281 92.78125 177.054688 94.703125 C 177.242188 96.625 177.335938 98.550781 177.335938 100.480469 C 177.335938 102.410156 177.242188 104.335938 177.050781 106.257812 C 176.863281 108.179688 176.578125 110.089844 176.203125 111.980469 C 175.824219 113.875 175.355469 115.746094 174.796875 117.59375 C 174.234375 119.441406 173.585938 121.257812 172.847656 123.039062 C 172.105469 124.824219 171.28125 126.566406 170.371094 128.269531 C 169.460938 129.972656 168.46875 131.625 167.398438 133.230469 C 166.324219 134.835938 165.175781 136.386719 163.949219 137.878906 C 162.726562 139.371094 161.429688 140.800781 160.066406 142.164062 C 158.699219 143.53125 157.269531 144.824219 155.777344 146.050781 C 154.285156 147.277344 152.738281 148.425781 151.132812 149.496094 C 149.527344 150.570312 147.871094 151.5625 146.171875 152.472656 C 144.46875 153.382812 142.722656 154.207031 140.941406 154.945312 C 139.15625 155.683594 137.339844 156.335938 135.492188 156.894531 C 133.644531 157.457031 131.777344 157.925781 129.882812 158.300781 C 127.988281 158.679688 126.082031 158.960938 124.160156 159.152344 C 122.238281 159.34375 120.3125 159.4375 118.382812 159.4375 Z M 118.382812 159.4375 " fill-opacity="1" fill-rule="nonzero"/></g><g clip-path="url(#0bab1785d7)"><path fill="#4157ff" d="M 118.390625 152.421875 C 91.1875 152.421875 69.054688 130.289062 69.054688 103.089844 C 69.054688 89.492188 74.75 76.367188 84.675781 67.070312 C 87.199219 64.71875 91.144531 64.851562 93.503906 67.363281 C 95.855469 69.878906 95.726562 73.828125 93.210938 76.183594 C 85.683594 83.230469 81.539062 92.785156 81.539062 103.089844 C 81.539062 123.410156 98.066406 139.941406 118.390625 139.941406 C 138.710938 139.941406 155.242188 123.410156 155.242188 103.089844 C 155.242188 93.015625 151.25 83.605469 144 76.597656 C 141.527344 74.203125 141.460938 70.25 143.855469 67.769531 C 146.25 65.300781 150.199219 65.222656 152.679688 67.625 C 162.378906 77.007812 167.722656 89.605469 167.722656 103.089844 C 167.722656 130.289062 145.59375 152.421875 118.390625 152.421875 Z M 118.390625 152.421875 " fill-opacity="1" fill-rule="nonzero"/></g><g clip-path="url(#1a5176fcca)"><path fill="#4157ff" d="M 118.390625 101.878906 C 114.941406 101.878906 112.148438 99.085938 112.148438 95.640625 L 112.148438 54.734375 C 112.148438 51.289062 114.941406 48.492188 118.390625 48.492188 C 121.839844 48.492188 124.632812 51.289062 124.632812 54.734375 L 124.632812 95.640625 C 124.628906 99.085938 121.839844 101.878906 118.390625 101.878906 Z M 118.390625 101.878906 " fill-opacity="1" fill-rule="nonzero"/></g><g fill="#000000" fill-opacity="1"><g transform="translate(36.163258, 248.349129)"><g><path d="M 13 -23.03125 C 15.3125 -23.03125 17.398438 -22.519531 19.265625 -21.5 C 21.128906 -20.488281 22.59375 -19.097656 23.65625 -17.328125 C 24.726562 -15.566406 25.265625 -13.585938 25.265625 -11.390625 C 25.265625 -9.160156 24.726562 -7.148438 23.65625 -5.359375 C 22.59375 -3.578125 21.128906 -2.164062 19.265625 -1.125 C 17.398438 -0.09375 15.3125 0.421875 13 0.421875 C 10.695312 0.421875 8.613281 -0.0859375 6.75 -1.109375 C 4.882812 -2.140625 3.414062 -3.550781 2.34375 -5.34375 C 1.28125 -7.144531 0.75 -9.160156 0.75 -11.390625 C 0.75 -13.585938 1.28125 -15.566406 2.34375 -17.328125 C 3.414062 -19.097656 4.882812 -20.488281 6.75 -21.5 C 8.613281 -22.519531 10.695312 -23.03125 13 -23.03125 Z M 13.0625 -18.015625 C 11.945312 -18.015625 10.90625 -17.722656 9.9375 -17.140625 C 8.976562 -16.554688 8.21875 -15.753906 7.65625 -14.734375 C 7.101562 -13.710938 6.828125 -12.585938 6.828125 -11.359375 C 6.828125 -10.109375 7.109375 -8.96875 7.671875 -7.9375 C 8.242188 -6.914062 9.003906 -6.109375 9.953125 -5.515625 C 10.910156 -4.921875 11.945312 -4.625 13.0625 -4.625 C 14.1875 -4.625 15.21875 -4.921875 16.15625 -5.515625 C 17.09375 -6.109375 17.832031 -6.914062 18.375 -7.9375 C 18.914062 -8.96875 19.1875 -10.109375 19.1875 -11.359375 C 19.1875 -12.585938 18.914062 -13.710938 18.375 -14.734375 C 17.832031 -15.753906 17.09375 -16.554688 16.15625 -17.140625 C 15.21875 -17.722656 14.1875 -18.015625 13.0625 -18.015625 Z M 13.0625 -18.015625 "/></g></g></g><g fill="#000000" fill-opacity="1"><g transform="translate(62.158036, 248.349129)"><g><path d="M 17.71875 -9.03125 L 17.6875 -22.671875 L 23.1875 -22.671875 L 23.1875 0 L 18.015625 0 L 7.734375 -13.546875 L 7.734375 0 L 2.203125 0 L 2.203125 -22.671875 L 7.40625 -22.671875 Z M 17.71875 -9.03125 "/></g></g></g><g fill="#000000" fill-opacity="1"><g transform="translate(87.570844, 248.349129)"><g><path d="M 2.203125 0 L 2.203125 -22.671875 L 19.140625 -22.671875 L 19.109375 -17.953125 L 8.125 -17.953125 L 8.125 -12.90625 L 18.28125 -12.90625 L 18.28125 -8.1875 L 8.125 -8.1875 L 8.125 0 Z M 2.203125 0 "/></g></g></g><g fill="#000000" fill-opacity="1"><g transform="translate(107.196262, 248.349129)"><g><path d="M 2.203125 0 L 2.203125 -22.671875 L 8.125 -22.671875 L 8.125 0 Z M 2.203125 0 "/></g></g></g><g fill="#000000" fill-opacity="1"><g transform="translate(117.510117, 248.349129)"><g><path d="M 18.59375 -14.96875 C 17.863281 -15.894531 16.988281 -16.632812 15.96875 -17.1875 C 14.957031 -17.738281 13.957031 -18.015625 12.96875 -18.015625 C 11.820312 -18.015625 10.78125 -17.726562 9.84375 -17.15625 C 8.90625 -16.582031 8.164062 -15.796875 7.625 -14.796875 C 7.09375 -13.796875 6.828125 -12.679688 6.828125 -11.453125 C 6.828125 -10.222656 7.09375 -9.101562 7.625 -8.09375 C 8.164062 -7.09375 8.90625 -6.304688 9.84375 -5.734375 C 10.78125 -5.171875 11.820312 -4.890625 12.96875 -4.890625 C 13.894531 -4.890625 14.863281 -5.125 15.875 -5.59375 C 16.894531 -6.070312 17.800781 -6.71875 18.59375 -7.53125 L 22.0625 -3.8125 C 20.832031 -2.519531 19.367188 -1.488281 17.671875 -0.71875 C 15.984375 0.0390625 14.304688 0.421875 12.640625 0.421875 C 10.398438 0.421875 8.375 -0.09375 6.5625 -1.125 C 4.75 -2.164062 3.328125 -3.578125 2.296875 -5.359375 C 1.265625 -7.148438 0.75 -9.160156 0.75 -11.390625 C 0.75 -13.585938 1.273438 -15.566406 2.328125 -17.328125 C 3.378906 -19.097656 4.828125 -20.488281 6.671875 -21.5 C 8.515625 -22.519531 10.582031 -23.03125 12.875 -23.03125 C 14.550781 -23.03125 16.207031 -22.675781 17.84375 -21.96875 C 19.488281 -21.269531 20.882812 -20.316406 22.03125 -19.109375 Z M 18.59375 -14.96875 "/></g></g></g><g fill="#000000" fill-opacity="1"><g transform="translate(139.883737, 248.349129)"><g><path d="M 2.203125 0 L 2.203125 -22.671875 L 8.125 -22.671875 L 8.125 0 Z M 2.203125 0 "/></g></g></g><g fill="#000000" fill-opacity="1"><g transform="translate(150.197591, 248.349129)"><g><path d="M 17.71875 -9.03125 L 17.6875 -22.671875 L 23.1875 -22.671875 L 23.1875 0 L 18.015625 0 L 7.734375 -13.546875 L 7.734375 0 L 2.203125 0 L 2.203125 -22.671875 L 7.40625 -22.671875 Z M 17.71875 -9.03125 "/></g></g></g><g fill="#000000" fill-opacity="1"><g transform="translate(175.610399, 248.349129)"><g><path d="M 25.15625 0 L 18.859375 0 L 17.296875 -4.015625 L 7.5 -4.015625 L 5.921875 0 L -0.15625 0 L 9.578125 -22.671875 L 15.65625 -22.671875 Z M 12.453125 -16.625 L 9.28125 -8.53125 L 15.5625 -8.53125 Z M 12.453125 -16.625 "/></g></g></g><g fill="#000000" fill-opacity="1"><g transform="translate(48.846158, 266.819975)"><g><path d="M 3.675781 0.144531 C 5.355469 0.144531 6.441406 -0.679688 6.441406 -2.019531 C 6.441406 -3.148438 5.683594 -3.832031 3.71875 -4.3125 C 2.226562 -4.675781 1.734375 -5.070312 1.734375 -5.707031 C 1.734375 -6.441406 2.390625 -6.902344 3.488281 -6.902344 C 4.621094 -6.902344 5.324219 -6.332031 5.34375 -5.410156 L 6.300781 -5.410156 C 6.289062 -6.902344 5.214844 -7.824219 3.488281 -7.824219 C 1.8125 -7.824219 0.746094 -7.003906 0.746094 -5.707031 C 0.746094 -4.523438 1.589844 -3.863281 3.480469 -3.414062 C 4.863281 -3.082031 5.445312 -2.699219 5.445312 -1.988281 C 5.445312 -1.230469 4.761719 -0.777344 3.675781 -0.777344 C 2.480469 -0.777344 1.644531 -1.371094 1.625 -2.359375 L 0.660156 -2.359375 C 0.667969 -0.855469 1.84375 0.144531 3.675781 0.144531 Z M 3.675781 0.144531 "/></g></g></g><g fill="#000000" fill-opacity="1"><g transform="translate(58.020427, 266.819975)"><g><path d="M 3.292969 0.144531 C 4.050781 0.144531 4.785156 -0.164062 5.277344 -0.835938 L 5.378906 0 L 6.136719 0 L 6.136719 -5.695312 L 5.214844 -5.695312 L 5.214844 -2.820312 C 5.214844 -1.582031 4.476562 -0.746094 3.414062 -0.746094 C 2.4375 -0.746094 1.832031 -1.46875 1.832031 -2.613281 L 1.832031 -5.695312 L 0.910156 -5.695312 L 0.910156 -2.523438 C 0.910156 -0.898438 1.800781 0.144531 3.292969 0.144531 Z M 3.292969 0.144531 "/></g></g></g><g fill="#000000" fill-opacity="1"><g transform="translate(67.249552, 266.819975)"><g><path d="M 2.886719 0.0859375 C 3.808594 0.0859375 4.53125 -0.207031 5.046875 -0.789062 L 5.148438 0 L 5.90625 0 L 5.90625 -3.621094 C 5.90625 -4.9375 4.90625 -5.839844 3.414062 -5.839844 C 2.171875 -5.839844 1.238281 -5.167969 0.988281 -4.070312 L 1.921875 -4.070312 C 2.105469 -4.632812 2.6875 -4.984375 3.425781 -4.984375 C 4.390625 -4.984375 4.984375 -4.445312 4.984375 -3.554688 L 4.984375 -3.347656 L 2.65625 -3.347656 C 1.46875 -3.347656 0.691406 -2.679688 0.691406 -1.644531 C 0.691406 -0.570312 1.515625 0.0859375 2.886719 0.0859375 Z M 1.613281 -1.65625 C 1.613281 -2.195312 2.050781 -2.535156 2.6875 -2.535156 L 4.992188 -2.535156 C 4.960938 -1.480469 4.105469 -0.734375 2.917969 -0.734375 C 2.117188 -0.734375 1.613281 -1.097656 1.613281 -1.65625 Z M 1.613281 -1.65625 "/></g></g></g><g fill="#000000" fill-opacity="1"><g transform="translate(76.127569, 266.819975)"><g/></g></g><g fill="#000000" fill-opacity="1"><g transform="translate(80.923912, 266.819975)"><g><path d="M 4.609375 0.144531 C 6.945312 0.144531 8.59375 -1.503906 8.59375 -3.839844 C 8.59375 -6.179688 6.945312 -7.824219 4.609375 -7.824219 C 2.273438 -7.824219 0.636719 -6.179688 0.636719 -3.839844 C 0.636719 -1.503906 2.273438 0.144531 4.609375 0.144531 Z M 1.625 -3.839844 C 1.625 -5.628906 2.84375 -6.859375 4.609375 -6.859375 C 6.375 -6.859375 7.59375 -5.628906 7.59375 -3.839844 C 7.59375 -2.050781 6.375 -0.824219 4.609375 -0.824219 C 2.84375 -0.824219 1.625 -2.050781 1.625 -3.839844 Z M 1.625 -3.839844 "/></g></g></g><g fill="#000000" fill-opacity="1"><g transform="translate(92.215819, 266.819975)"><g><path d="M 1.570312 -6.277344 L 1.570312 -5.695312 L 0.328125 -5.695312 L 0.328125 -4.851562 L 1.570312 -4.851562 L 1.570312 0 L 2.492188 0 L 2.492188 -4.851562 L 4.476562 -4.851562 L 4.476562 -5.695312 L 2.492188 -5.695312 L 2.492188 -6.222656 C 2.492188 -7.046875 2.84375 -7.398438 3.644531 -7.398438 L 4.53125 -7.398438 L 4.53125 -8.265625 L 3.554688 -8.265625 C 2.273438 -8.265625 1.570312 -7.574219 1.570312 -6.277344 Z M 1.570312 -6.277344 "/></g></g></g><g fill="#000000" fill-opacity="1"><g transform="translate(98.932298, 266.819975)"><g><path d="M 1.019531 0 L 1.941406 0 L 1.941406 -5.695312 L 1.019531 -5.695312 Z M 0.734375 -7.351562 C 0.734375 -6.945312 1.03125 -6.640625 1.480469 -6.640625 C 1.929688 -6.640625 2.21875 -6.945312 2.21875 -7.351562 C 2.21875 -7.769531 1.929688 -8.078125 1.480469 -8.078125 C 1.03125 -8.078125 0.734375 -7.769531 0.734375 -7.351562 Z M 0.734375 -7.351562 "/></g></g></g><g fill="#000000" fill-opacity="1"><g transform="translate(103.970023, 266.819975)"><g><path d="M 3.5 0.144531 C 4.929688 0.144531 6.035156 -0.714844 6.421875 -2.097656 L 5.445312 -2.097656 C 5.160156 -1.273438 4.421875 -0.746094 3.5 -0.746094 C 2.328125 -0.746094 1.492188 -1.613281 1.492188 -2.851562 C 1.492188 -4.082031 2.328125 -4.960938 3.5 -4.960938 C 4.367188 -4.960938 5.082031 -4.488281 5.421875 -3.699219 L 6.355469 -3.699219 C 6.070312 -4.984375 4.917969 -5.839844 3.5 -5.839844 C 1.789062 -5.839844 0.570312 -4.585938 0.570312 -2.851562 C 0.570312 -1.109375 1.789062 0.144531 3.5 0.144531 Z M 3.5 0.144531 "/></g></g></g><g fill="#000000" fill-opacity="1"><g transform="translate(113.001648, 266.819975)"><g><path d="M 1.019531 0 L 1.941406 0 L 1.941406 -5.695312 L 1.019531 -5.695312 Z M 0.734375 -7.351562 C 0.734375 -6.945312 1.03125 -6.640625 1.480469 -6.640625 C 1.929688 -6.640625 2.21875 -6.945312 2.21875 -7.351562 C 2.21875 -7.769531 1.929688 -8.078125 1.480469 -8.078125 C 1.03125 -8.078125 0.734375 -7.769531 0.734375 -7.351562 Z M 0.734375 -7.351562 "/></g></g></g><g fill="#000000" fill-opacity="1"><g transform="translate(118.039374, 266.819975)"><g><path d="M 1.019531 0 L 1.941406 0 L 1.941406 -2.875 C 1.941406 -4.125 2.699219 -4.960938 3.765625 -4.960938 C 4.761719 -4.960938 5.378906 -4.238281 5.378906 -3.082031 L 5.378906 0 L 6.300781 0 L 6.300781 -3.171875 C 6.300781 -4.796875 5.398438 -5.839844 3.886719 -5.839844 C 3.117188 -5.839844 2.371094 -5.542969 1.875 -4.863281 L 1.777344 -5.695312 L 1.019531 -5.695312 Z M 1.019531 0 "/></g></g></g><g fill="#000000" fill-opacity="1"><g transform="translate(127.323362, 266.819975)"><g><path d="M 2.886719 0.0859375 C 3.808594 0.0859375 4.53125 -0.207031 5.046875 -0.789062 L 5.148438 0 L 5.90625 0 L 5.90625 -3.621094 C 5.90625 -4.9375 4.90625 -5.839844 3.414062 -5.839844 C 2.171875 -5.839844 1.238281 -5.167969 0.988281 -4.070312 L 1.921875 -4.070312 C 2.105469 -4.632812 2.6875 -4.984375 3.425781 -4.984375 C 4.390625 -4.984375 4.984375 -4.445312 4.984375 -3.554688 L 4.984375 -3.347656 L 2.65625 -3.347656 C 1.46875 -3.347656 0.691406 -2.679688 0.691406 -1.644531 C 0.691406 -0.570312 1.515625 0.0859375 2.886719 0.0859375 Z M 1.613281 -1.65625 C 1.613281 -2.195312 2.050781 -2.535156 2.6875 -2.535156 L 4.992188 -2.535156 C 4.960938 -1.480469 4.105469 -0.734375 2.917969 -0.734375 C 2.117188 -0.734375 1.613281 -1.097656 1.613281 -1.65625 Z M 1.613281 -1.65625 "/></g></g></g><g fill="#000000" fill-opacity="1"><g transform="translate(136.201378, 266.819975)"><g/></g></g><g fill="#000000" fill-opacity="1"><g transform="translate(140.997717, 266.819975)"><g><path d="M 4.609375 0.144531 C 6.945312 0.144531 8.59375 -1.503906 8.59375 -3.839844 C 8.59375 -6.179688 6.945312 -7.824219 4.609375 -7.824219 C 2.273438 -7.824219 0.636719 -6.179688 0.636719 -3.839844 C 0.636719 -1.503906 2.273438 0.144531 4.609375 0.144531 Z M 1.625 -3.839844 C 1.625 -5.628906 2.84375 -6.859375 4.609375 -6.859375 C 6.375 -6.859375 7.59375 -5.628906 7.59375 -3.839844 C 7.59375 -2.050781 6.375 -0.824219 4.609375 -0.824219 C 2.84375 -0.824219 1.625 -2.050781 1.625 -3.839844 Z M 1.625 -3.839844 "/></g></g></g><g fill="#000000" fill-opacity="1"><g transform="translate(152.289622, 266.819975)"><g><path d="M 1.019531 0 L 1.941406 0 L 1.941406 -2.875 C 1.941406 -4.125 2.699219 -4.960938 3.765625 -4.960938 C 4.761719 -4.960938 5.378906 -4.238281 5.378906 -3.082031 L 5.378906 0 L 6.300781 0 L 6.300781 -3.171875 C 6.300781 -4.796875 5.398438 -5.839844 3.886719 -5.839844 C 3.117188 -5.839844 2.371094 -5.542969 1.875 -4.863281 L 1.777344 -5.695312 L 1.019531 -5.695312 Z M 1.019531 0 "/></g></g></g><g fill="#000000" fill-opacity="1"><g transform="translate(161.57361, 266.819975)"><g><path d="M 1.019531 0 L 1.941406 0 L 1.941406 -8.121094 L 1.019531 -8.121094 Z M 1.019531 0 "/></g></g></g><g fill="#000000" fill-opacity="1"><g transform="translate(166.611335, 266.819975)"><g><path d="M 1.019531 0 L 1.941406 0 L 1.941406 -5.695312 L 1.019531 -5.695312 Z M 0.734375 -7.351562 C 0.734375 -6.945312 1.03125 -6.640625 1.480469 -6.640625 C 1.929688 -6.640625 2.21875 -6.945312 2.21875 -7.351562 C 2.21875 -7.769531 1.929688 -8.078125 1.480469 -8.078125 C 1.03125 -8.078125 0.734375 -7.769531 0.734375 -7.351562 Z M 0.734375 -7.351562 "/></g></g></g><g fill="#000000" fill-opacity="1"><g transform="translate(171.64906, 266.819975)"><g><path d="M 1.019531 0 L 1.941406 0 L 1.941406 -2.875 C 1.941406 -4.125 2.699219 -4.960938 3.765625 -4.960938 C 4.761719 -4.960938 5.378906 -4.238281 5.378906 -3.082031 L 5.378906 0 L 6.300781 0 L 6.300781 -3.171875 C 6.300781 -4.796875 5.398438 -5.839844 3.886719 -5.839844 C 3.117188 -5.839844 2.371094 -5.542969 1.875 -4.863281 L 1.777344 -5.695312 L 1.019531 -5.695312 Z M 1.019531 0 "/></g></g></g><g fill="#000000" fill-opacity="1"><g transform="translate(180.933048, 266.819975)"><g><path d="M 3.488281 0.144531 C 4.773438 0.144531 5.828125 -0.546875 6.289062 -1.65625 L 5.246094 -1.65625 C 4.894531 -1.054688 4.246094 -0.722656 3.5 -0.722656 C 2.414062 -0.722656 1.644531 -1.40625 1.503906 -2.480469 L 6.429688 -2.480469 C 6.496094 -4.46875 5.324219 -5.839844 3.5 -5.839844 C 1.777344 -5.839844 0.570312 -4.609375 0.570312 -2.851562 C 0.570312 -1.085938 1.765625 0.144531 3.488281 0.144531 Z M 1.515625 -3.292969 C 1.679688 -4.300781 2.449219 -4.972656 3.5 -4.972656 C 4.542969 -4.972656 5.3125 -4.335938 5.507812 -3.292969 Z M 1.515625 -3.292969 "/></g></g></g></svg>