<svg xmlns="http://www.w3.org/2000/svg" xmlns:xlink="http://www.w3.org/1999/xlink" width="300" zoomAndPan="magnify" viewBox="0 0 224.87999 66" height="88" preserveAspectRatio="xMidYMid meet" version="1.0"><defs><g/><clipPath id="a7f3c3372f"><path d="M 0 0.0195312 L 65.964844 0.0195312 L 65.964844 65.980469 L 0 65.980469 Z M 0 0.0195312 " clip-rule="nonzero"/></clipPath><clipPath id="f7fb6aee66"><path d="M 16.734375 21 L 48.96875 21 L 48.96875 49.648438 L 16.734375 49.648438 Z M 16.734375 21 " clip-rule="nonzero"/></clipPath><clipPath id="02ef8f0568"><path d="M 30 15.917969 L 35 15.917969 L 35 34 L 30 34 Z M 30 15.917969 " clip-rule="nonzero"/></clipPath></defs><g clip-path="url(#a7f3c3372f)"><path fill="#4157ff" d="M 65.613281 38.40625 C 65.746094 33.964844 65.746094 33.957031 65.882812 29.515625 L 59.003906 26.832031 C 58.011719 24.210938 57.515625 22.898438 56.523438 20.277344 L 59.894531 13.707031 C 56.847656 10.476562 56.839844 10.46875 53.792969 7.234375 L 47.039062 10.195312 L 40.65625 7.316406 L 38.390625 0.289062 L 29.503906 0.0195312 L 26.816406 6.898438 C 24.203125 7.890625 22.878906 8.386719 20.269531 9.378906 L 13.699219 6.007812 C 10.460938 9.046875 10.453125 9.054688 7.214844 12.101562 L 10.179688 18.863281 C 9.039062 21.410156 8.457031 22.699219 7.304688 25.246094 L 0.269531 27.511719 C 0.136719 31.953125 0.136719 31.960938 0 36.394531 L 6.878906 39.085938 C 7.871094 41.699219 8.367188 43.019531 9.359375 45.640625 L 5.992188 52.203125 C 9.039062 55.441406 9.046875 55.449219 12.082031 58.683594 L 18.84375 55.722656 C 21.402344 56.863281 22.6875 57.441406 25.238281 58.59375 L 27.496094 65.628906 L 36.390625 65.902344 L 39.074219 59.019531 C 41.691406 58.027344 43.007812 57.53125 45.625 56.539062 L 52.199219 59.914062 L 58.671875 53.820312 L 55.707031 47.058594 C 56.863281 44.511719 57.4375 43.214844 58.589844 40.667969 Z M 32.941406 52.289062 C 32.308594 52.289062 31.675781 52.257812 31.046875 52.195312 C 30.417969 52.132812 29.792969 52.039062 29.171875 51.914062 C 28.550781 51.792969 27.9375 51.636719 27.332031 51.453125 C 26.726562 51.269531 26.128906 51.058594 25.546875 50.816406 C 24.960938 50.574219 24.390625 50.304688 23.832031 50.003906 C 23.273438 49.707031 22.730469 49.382812 22.203125 49.03125 C 21.679688 48.675781 21.171875 48.300781 20.679688 47.898438 C 20.191406 47.496094 19.722656 47.074219 19.277344 46.625 C 18.828125 46.179688 18.40625 45.710938 18.003906 45.21875 C 17.601562 44.730469 17.226562 44.222656 16.875 43.695312 C 16.523438 43.171875 16.195312 42.628906 15.898438 42.070312 C 15.601562 41.511719 15.328125 40.941406 15.085938 40.355469 C 14.84375 39.769531 14.632812 39.175781 14.449219 38.570312 C 14.265625 37.964844 14.109375 37.351562 13.988281 36.730469 C 13.863281 36.109375 13.773438 35.484375 13.710938 34.855469 C 13.648438 34.222656 13.617188 33.59375 13.617188 32.960938 C 13.617188 32.328125 13.648438 31.695312 13.710938 31.066406 C 13.773438 30.4375 13.863281 29.8125 13.988281 29.191406 C 14.113281 28.570312 14.265625 27.957031 14.449219 27.351562 C 14.632812 26.746094 14.84375 26.148438 15.085938 25.566406 C 15.328125 24.980469 15.601562 24.410156 15.898438 23.851562 C 16.195312 23.292969 16.523438 22.75 16.875 22.222656 C 17.226562 21.695312 17.601562 21.1875 18.003906 20.699219 C 18.40625 20.210938 18.828125 19.742188 19.277344 19.292969 C 19.726562 18.847656 20.191406 18.421875 20.683594 18.019531 C 21.171875 17.621094 21.679688 17.242188 22.207031 16.890625 C 22.730469 16.539062 23.273438 16.214844 23.832031 15.917969 C 24.390625 15.617188 24.960938 15.347656 25.546875 15.105469 C 26.132812 14.863281 26.726562 14.648438 27.332031 14.464844 C 27.9375 14.28125 28.550781 14.128906 29.171875 14.003906 C 29.792969 13.882812 30.417969 13.789062 31.046875 13.726562 C 31.679688 13.664062 32.308594 13.632812 32.941406 13.632812 C 33.574219 13.632812 34.207031 13.664062 34.835938 13.726562 C 35.464844 13.789062 36.09375 13.882812 36.710938 14.003906 C 37.332031 14.128906 37.945312 14.28125 38.550781 14.464844 C 39.160156 14.648438 39.753906 14.863281 40.339844 15.105469 C 40.921875 15.347656 41.496094 15.617188 42.050781 15.914062 C 42.609375 16.214844 43.152344 16.539062 43.679688 16.890625 C 44.207031 17.242188 44.714844 17.617188 45.203125 18.019531 C 45.691406 18.421875 46.160156 18.847656 46.609375 19.292969 C 47.054688 19.742188 47.480469 20.210938 47.882812 20.699219 C 48.285156 21.1875 48.660156 21.695312 49.011719 22.222656 C 49.363281 22.75 49.6875 23.289062 49.988281 23.847656 C 50.285156 24.40625 50.554688 24.980469 50.796875 25.5625 C 51.039062 26.148438 51.253906 26.742188 51.4375 27.347656 C 51.621094 27.953125 51.773438 28.566406 51.898438 29.1875 C 52.019531 29.808594 52.113281 30.433594 52.175781 31.066406 C 52.238281 31.695312 52.269531 32.324219 52.269531 32.960938 C 52.269531 33.59375 52.238281 34.222656 52.175781 34.851562 C 52.113281 35.484375 52.019531 36.109375 51.898438 36.730469 C 51.773438 37.351562 51.621094 37.964844 51.4375 38.570312 C 51.253906 39.175781 51.039062 39.769531 50.796875 40.355469 C 50.554688 40.941406 50.285156 41.511719 49.984375 42.070312 C 49.6875 42.628906 49.363281 43.167969 49.011719 43.695312 C 48.660156 44.222656 48.28125 44.730469 47.878906 45.21875 C 47.480469 45.707031 47.054688 46.175781 46.605469 46.625 C 46.160156 47.070312 45.691406 47.496094 45.203125 47.898438 C 44.710938 48.300781 44.203125 48.675781 43.679688 49.027344 C 43.152344 49.378906 42.609375 49.703125 42.050781 50.003906 C 41.492188 50.300781 40.921875 50.574219 40.335938 50.816406 C 39.753906 51.058594 39.15625 51.269531 38.550781 51.453125 C 37.945312 51.636719 37.332031 51.792969 36.710938 51.914062 C 36.089844 52.039062 35.464844 52.132812 34.835938 52.195312 C 34.207031 52.253906 33.574219 52.285156 32.941406 52.289062 Z M 32.941406 52.289062 " fill-opacity="1" fill-rule="nonzero"/></g><g clip-path="url(#f7fb6aee66)"><path fill="#4157ff" d="M 32.941406 49.984375 C 24.023438 49.984375 16.769531 42.730469 16.769531 33.8125 C 16.769531 29.355469 18.636719 25.054688 21.890625 22.007812 C 22.71875 21.234375 24.011719 21.277344 24.785156 22.101562 C 25.554688 22.925781 25.511719 24.222656 24.6875 24.992188 C 22.21875 27.304688 20.863281 30.433594 20.863281 33.8125 C 20.863281 40.472656 26.28125 45.890625 32.941406 45.890625 C 39.601562 45.890625 45.019531 40.472656 45.019531 33.8125 C 45.019531 30.511719 43.710938 27.425781 41.335938 25.128906 C 40.527344 24.34375 40.503906 23.046875 41.289062 22.234375 C 42.074219 21.425781 43.367188 21.402344 44.183594 22.1875 C 47.359375 25.261719 49.113281 29.390625 49.113281 33.8125 C 49.113281 42.730469 41.859375 49.984375 32.941406 49.984375 Z M 32.941406 49.984375 " fill-opacity="1" fill-rule="nonzero"/></g><g clip-path="url(#02ef8f0568)"><path fill="#4157ff" d="M 32.941406 33.417969 C 31.8125 33.417969 30.894531 32.5 30.894531 31.371094 L 30.894531 17.960938 C 30.894531 16.832031 31.8125 15.917969 32.941406 15.917969 C 34.074219 15.917969 34.988281 16.832031 34.988281 17.960938 L 34.988281 31.371094 C 34.988281 32.5 34.074219 33.417969 32.941406 33.417969 Z M 32.941406 33.417969 " fill-opacity="1" fill-rule="nonzero"/></g><g fill="#ffffff" fill-opacity="1"><g transform="translate(81.689037, 35.860367)"><g><path d="M 10 -17.71875 C 11.769531 -17.71875 13.375 -17.328125 14.8125 -16.546875 C 16.25 -15.765625 17.375 -14.691406 18.1875 -13.328125 C 19.007812 -11.972656 19.421875 -10.445312 19.421875 -8.75 C 19.421875 -7.039062 19.007812 -5.5 18.1875 -4.125 C 17.375 -2.75 16.25 -1.660156 14.8125 -0.859375 C 13.375 -0.0664062 11.769531 0.328125 10 0.328125 C 8.226562 0.328125 6.625 -0.0664062 5.1875 -0.859375 C 3.75 -1.648438 2.617188 -2.734375 1.796875 -4.109375 C 0.984375 -5.492188 0.578125 -7.039062 0.578125 -8.75 C 0.578125 -10.445312 0.984375 -11.972656 1.796875 -13.328125 C 2.617188 -14.691406 3.75 -15.765625 5.1875 -16.546875 C 6.625 -17.328125 8.226562 -17.71875 10 -17.71875 Z M 10.046875 -13.859375 C 9.179688 -13.859375 8.378906 -13.632812 7.640625 -13.1875 C 6.910156 -12.738281 6.328125 -12.117188 5.890625 -11.328125 C 5.460938 -10.546875 5.25 -9.679688 5.25 -8.734375 C 5.25 -7.765625 5.46875 -6.882812 5.90625 -6.09375 C 6.34375 -5.3125 6.925781 -4.691406 7.65625 -4.234375 C 8.382812 -3.785156 9.179688 -3.5625 10.046875 -3.5625 C 10.910156 -3.5625 11.703125 -3.785156 12.421875 -4.234375 C 13.140625 -4.691406 13.707031 -5.3125 14.125 -6.09375 C 14.539062 -6.882812 14.75 -7.765625 14.75 -8.734375 C 14.75 -9.679688 14.539062 -10.546875 14.125 -11.328125 C 13.707031 -12.117188 13.140625 -12.738281 12.421875 -13.1875 C 11.703125 -13.632812 10.910156 -13.859375 10.046875 -13.859375 Z M 10.046875 -13.859375 "/></g></g></g><g fill="#ffffff" fill-opacity="1"><g transform="translate(101.681015, 35.860367)"><g><path d="M 13.625 -6.9375 L 13.609375 -17.4375 L 17.828125 -17.4375 L 17.828125 0 L 13.859375 0 L 5.9375 -10.421875 L 5.9375 0 L 1.6875 0 L 1.6875 -17.4375 L 5.703125 -17.4375 Z M 13.625 -6.9375 "/></g></g></g><g fill="#ffffff" fill-opacity="1"><g transform="translate(121.225413, 35.860367)"><g><path d="M 1.6875 0 L 1.6875 -17.4375 L 14.71875 -17.4375 L 14.703125 -13.8125 L 6.25 -13.8125 L 6.25 -9.921875 L 14.046875 -9.921875 L 14.046875 -6.296875 L 6.25 -6.296875 L 6.25 0 Z M 1.6875 0 "/></g></g></g><g fill="#ffffff" fill-opacity="1"><g transform="translate(136.318866, 35.860367)"><g><path d="M 1.6875 0 L 1.6875 -17.4375 L 6.25 -17.4375 L 6.25 0 Z M 1.6875 0 "/></g></g></g><g fill="#ffffff" fill-opacity="1"><g transform="translate(144.251008, 35.860367)"><g><path d="M 14.296875 -11.515625 C 13.734375 -12.234375 13.0625 -12.800781 12.28125 -13.21875 C 11.507812 -13.644531 10.738281 -13.859375 9.96875 -13.859375 C 9.09375 -13.859375 8.296875 -13.632812 7.578125 -13.1875 C 6.859375 -12.75 6.289062 -12.144531 5.875 -11.375 C 5.457031 -10.601562 5.25 -9.75 5.25 -8.8125 C 5.25 -7.863281 5.457031 -7.003906 5.875 -6.234375 C 6.289062 -5.460938 6.859375 -4.851562 7.578125 -4.40625 C 8.296875 -3.96875 9.09375 -3.75 9.96875 -3.75 C 10.6875 -3.75 11.429688 -3.929688 12.203125 -4.296875 C 12.984375 -4.660156 13.679688 -5.160156 14.296875 -5.796875 L 16.96875 -2.9375 C 16.019531 -1.9375 14.894531 -1.140625 13.59375 -0.546875 C 12.289062 0.0351562 11 0.328125 9.71875 0.328125 C 8 0.328125 6.441406 -0.0664062 5.046875 -0.859375 C 3.648438 -1.660156 2.554688 -2.75 1.765625 -4.125 C 0.972656 -5.5 0.578125 -7.039062 0.578125 -8.75 C 0.578125 -10.445312 0.984375 -11.972656 1.796875 -13.328125 C 2.609375 -14.691406 3.722656 -15.765625 5.140625 -16.546875 C 6.554688 -17.328125 8.144531 -17.71875 9.90625 -17.71875 C 11.195312 -17.71875 12.472656 -17.445312 13.734375 -16.90625 C 14.992188 -16.363281 16.0625 -15.628906 16.9375 -14.703125 Z M 14.296875 -11.515625 "/></g></g></g><g fill="#ffffff" fill-opacity="1"><g transform="translate(161.458041, 35.860367)"><g><path d="M 1.6875 0 L 1.6875 -17.4375 L 6.25 -17.4375 L 6.25 0 Z M 1.6875 0 "/></g></g></g><g fill="#ffffff" fill-opacity="1"><g transform="translate(169.390182, 35.860367)"><g><path d="M 13.625 -6.9375 L 13.609375 -17.4375 L 17.828125 -17.4375 L 17.828125 0 L 13.859375 0 L 5.9375 -10.421875 L 5.9375 0 L 1.6875 0 L 1.6875 -17.4375 L 5.703125 -17.4375 Z M 13.625 -6.9375 "/></g></g></g><g fill="#ffffff" fill-opacity="1"><g transform="translate(188.93458, 35.860367)"><g><path d="M 19.359375 0 L 14.5 0 L 13.3125 -3.078125 L 5.765625 -3.078125 L 4.546875 0 L -0.125 0 L 7.359375 -17.4375 L 12.046875 -17.4375 Z M 9.578125 -12.78125 L 7.140625 -6.5625 L 11.96875 -6.5625 Z M 9.578125 -12.78125 "/></g></g></g><g fill="#ffffff" fill-opacity="1"><g transform="translate(91.442507, 50.761379)"><g><path d="M 2.828125 0.109375 C 4.117188 0.109375 4.953125 -0.523438 4.953125 -1.554688 C 4.953125 -2.421875 4.371094 -2.945312 2.863281 -3.316406 C 1.714844 -3.597656 1.332031 -3.898438 1.332031 -4.390625 C 1.332031 -4.953125 1.839844 -5.308594 2.683594 -5.308594 C 3.554688 -5.308594 4.09375 -4.871094 4.109375 -4.160156 L 4.84375 -4.160156 C 4.835938 -5.308594 4.007812 -6.019531 2.683594 -6.019531 C 1.394531 -6.019531 0.574219 -5.386719 0.574219 -4.390625 C 0.574219 -3.476562 1.222656 -2.972656 2.675781 -2.625 C 3.738281 -2.371094 4.1875 -2.078125 4.1875 -1.527344 C 4.1875 -0.945312 3.664062 -0.597656 2.828125 -0.597656 C 1.90625 -0.597656 1.265625 -1.054688 1.25 -1.816406 L 0.507812 -1.816406 C 0.515625 -0.660156 1.417969 0.109375 2.828125 0.109375 Z M 2.828125 0.109375 "/></g></g></g><g fill="#ffffff" fill-opacity="1"><g transform="translate(98.498317, 50.761379)"><g><path d="M 2.53125 0.109375 C 3.113281 0.109375 3.679688 -0.125 4.058594 -0.640625 L 4.136719 0 L 4.71875 0 L 4.71875 -4.378906 L 4.007812 -4.378906 L 4.007812 -2.167969 C 4.007812 -1.214844 3.445312 -0.574219 2.625 -0.574219 C 1.875 -0.574219 1.410156 -1.132812 1.410156 -2.007812 L 1.410156 -4.378906 L 0.699219 -4.378906 L 0.699219 -1.941406 C 0.699219 -0.691406 1.382812 0.109375 2.53125 0.109375 Z M 2.53125 0.109375 "/></g></g></g><g fill="#ffffff" fill-opacity="1"><g transform="translate(105.596315, 50.761379)"><g><path d="M 2.21875 0.0664062 C 2.929688 0.0664062 3.484375 -0.160156 3.882812 -0.609375 L 3.957031 0 L 4.542969 0 L 4.542969 -2.785156 C 4.542969 -3.796875 3.773438 -4.492188 2.625 -4.492188 C 1.671875 -4.492188 0.953125 -3.976562 0.757812 -3.132812 L 1.476562 -3.132812 C 1.621094 -3.5625 2.066406 -3.832031 2.632812 -3.832031 C 3.375 -3.832031 3.832031 -3.417969 3.832031 -2.734375 L 3.832031 -2.574219 L 2.042969 -2.574219 C 1.132812 -2.574219 0.53125 -2.058594 0.53125 -1.265625 C 0.53125 -0.4375 1.164062 0.0664062 2.21875 0.0664062 Z M 1.242188 -1.273438 C 1.242188 -1.6875 1.578125 -1.949219 2.066406 -1.949219 L 3.839844 -1.949219 C 3.816406 -1.140625 3.15625 -0.566406 2.246094 -0.566406 C 1.628906 -0.566406 1.242188 -0.84375 1.242188 -1.273438 Z M 1.242188 -1.273438 "/></g></g></g><g fill="#ffffff" fill-opacity="1"><g transform="translate(112.424281, 50.761379)"><g/></g></g><g fill="#ffffff" fill-opacity="1"><g transform="translate(116.113085, 50.761379)"><g><path d="M 3.546875 0.109375 C 5.34375 0.109375 6.609375 -1.15625 6.609375 -2.953125 C 6.609375 -4.753906 5.34375 -6.019531 3.546875 -6.019531 C 1.746094 -6.019531 0.488281 -4.753906 0.488281 -2.953125 C 0.488281 -1.15625 1.746094 0.109375 3.546875 0.109375 Z M 1.25 -2.953125 C 1.25 -4.332031 2.1875 -5.277344 3.546875 -5.277344 C 4.902344 -5.277344 5.839844 -4.332031 5.839844 -2.953125 C 5.839844 -1.578125 4.902344 -0.632812 3.546875 -0.632812 C 2.1875 -0.632812 1.25 -1.578125 1.25 -2.953125 Z M 1.25 -2.953125 "/></g></g></g><g fill="#ffffff" fill-opacity="1"><g transform="translate(124.797542, 50.761379)"><g><path d="M 1.207031 -4.828125 L 1.207031 -4.378906 L 0.253906 -4.378906 L 0.253906 -3.730469 L 1.207031 -3.730469 L 1.207031 0 L 1.917969 0 L 1.917969 -3.730469 L 3.445312 -3.730469 L 3.445312 -4.378906 L 1.917969 -4.378906 L 1.917969 -4.785156 C 1.917969 -5.417969 2.1875 -5.6875 2.800781 -5.6875 L 3.484375 -5.6875 L 3.484375 -6.355469 L 2.734375 -6.355469 C 1.746094 -6.355469 1.207031 -5.824219 1.207031 -4.828125 Z M 1.207031 -4.828125 "/></g></g></g><g fill="#ffffff" fill-opacity="1"><g transform="translate(129.963098, 50.761379)"><g><path d="M 0.785156 0 L 1.492188 0 L 1.492188 -4.378906 L 0.785156 -4.378906 Z M 0.566406 -5.65625 C 0.566406 -5.34375 0.792969 -5.105469 1.140625 -5.105469 C 1.484375 -5.105469 1.703125 -5.34375 1.703125 -5.65625 C 1.703125 -5.976562 1.484375 -6.210938 1.140625 -6.210938 C 0.792969 -6.210938 0.566406 -5.976562 0.566406 -5.65625 Z M 0.566406 -5.65625 "/></g></g></g><g fill="#ffffff" fill-opacity="1"><g transform="translate(133.837546, 50.761379)"><g><path d="M 2.691406 0.109375 C 3.789062 0.109375 4.640625 -0.546875 4.9375 -1.613281 L 4.1875 -1.613281 C 3.96875 -0.980469 3.402344 -0.574219 2.691406 -0.574219 C 1.789062 -0.574219 1.148438 -1.242188 1.148438 -2.195312 C 1.148438 -3.140625 1.789062 -3.816406 2.691406 -3.816406 C 3.359375 -3.816406 3.90625 -3.453125 4.167969 -2.84375 L 4.886719 -2.84375 C 4.667969 -3.832031 3.78125 -4.492188 2.691406 -4.492188 C 1.375 -4.492188 0.4375 -3.527344 0.4375 -2.195312 C 0.4375 -0.851562 1.375 0.109375 2.691406 0.109375 Z M 2.691406 0.109375 "/></g></g></g><g fill="#ffffff" fill-opacity="1"><g transform="translate(140.78365, 50.761379)"><g><path d="M 0.785156 0 L 1.492188 0 L 1.492188 -4.378906 L 0.785156 -4.378906 Z M 0.566406 -5.65625 C 0.566406 -5.34375 0.792969 -5.105469 1.140625 -5.105469 C 1.484375 -5.105469 1.703125 -5.34375 1.703125 -5.65625 C 1.703125 -5.976562 1.484375 -6.210938 1.140625 -6.210938 C 0.792969 -6.210938 0.566406 -5.976562 0.566406 -5.65625 Z M 0.566406 -5.65625 "/></g></g></g><g fill="#ffffff" fill-opacity="1"><g transform="translate(144.658098, 50.761379)"><g><path d="M 0.785156 0 L 1.492188 0 L 1.492188 -2.210938 C 1.492188 -3.171875 2.078125 -3.816406 2.894531 -3.816406 C 3.664062 -3.816406 4.136719 -3.257812 4.136719 -2.371094 L 4.136719 0 L 4.84375 0 L 4.84375 -2.4375 C 4.84375 -3.6875 4.152344 -4.492188 2.988281 -4.492188 C 2.398438 -4.492188 1.824219 -4.261719 1.445312 -3.738281 L 1.367188 -4.378906 L 0.785156 -4.378906 Z M 0.785156 0 "/></g></g></g><g fill="#ffffff" fill-opacity="1"><g transform="translate(151.798291, 50.761379)"><g><path d="M 2.21875 0.0664062 C 2.929688 0.0664062 3.484375 -0.160156 3.882812 -0.609375 L 3.957031 0 L 4.542969 0 L 4.542969 -2.785156 C 4.542969 -3.796875 3.773438 -4.492188 2.625 -4.492188 C 1.671875 -4.492188 0.953125 -3.976562 0.757812 -3.132812 L 1.476562 -3.132812 C 1.621094 -3.5625 2.066406 -3.832031 2.632812 -3.832031 C 3.375 -3.832031 3.832031 -3.417969 3.832031 -2.734375 L 3.832031 -2.574219 L 2.042969 -2.574219 C 1.132812 -2.574219 0.53125 -2.058594 0.53125 -1.265625 C 0.53125 -0.4375 1.164062 0.0664062 2.21875 0.0664062 Z M 1.242188 -1.273438 C 1.242188 -1.6875 1.578125 -1.949219 2.066406 -1.949219 L 3.839844 -1.949219 C 3.816406 -1.140625 3.15625 -0.566406 2.246094 -0.566406 C 1.628906 -0.566406 1.242188 -0.84375 1.242188 -1.273438 Z M 1.242188 -1.273438 "/></g></g></g><g fill="#ffffff" fill-opacity="1"><g transform="translate(158.626256, 50.761379)"><g/></g></g><g fill="#ffffff" fill-opacity="1"><g transform="translate(162.315057, 50.761379)"><g><path d="M 3.546875 0.109375 C 5.34375 0.109375 6.609375 -1.15625 6.609375 -2.953125 C 6.609375 -4.753906 5.34375 -6.019531 3.546875 -6.019531 C 1.746094 -6.019531 0.488281 -4.753906 0.488281 -2.953125 C 0.488281 -1.15625 1.746094 0.109375 3.546875 0.109375 Z M 1.25 -2.953125 C 1.25 -4.332031 2.1875 -5.277344 3.546875 -5.277344 C 4.902344 -5.277344 5.839844 -4.332031 5.839844 -2.953125 C 5.839844 -1.578125 4.902344 -0.632812 3.546875 -0.632812 C 2.1875 -0.632812 1.25 -1.578125 1.25 -2.953125 Z M 1.25 -2.953125 "/></g></g></g><g fill="#ffffff" fill-opacity="1"><g transform="translate(170.999512, 50.761379)"><g><path d="M 0.785156 0 L 1.492188 0 L 1.492188 -2.210938 C 1.492188 -3.171875 2.078125 -3.816406 2.894531 -3.816406 C 3.664062 -3.816406 4.136719 -3.257812 4.136719 -2.371094 L 4.136719 0 L 4.84375 0 L 4.84375 -2.4375 C 4.84375 -3.6875 4.152344 -4.492188 2.988281 -4.492188 C 2.398438 -4.492188 1.824219 -4.261719 1.445312 -3.738281 L 1.367188 -4.378906 L 0.785156 -4.378906 Z M 0.785156 0 "/></g></g></g><g fill="#ffffff" fill-opacity="1"><g transform="translate(178.139705, 50.761379)"><g><path d="M 0.785156 0 L 1.492188 0 L 1.492188 -6.246094 L 0.785156 -6.246094 Z M 0.785156 0 "/></g></g></g><g fill="#ffffff" fill-opacity="1"><g transform="translate(182.014153, 50.761379)"><g><path d="M 0.785156 0 L 1.492188 0 L 1.492188 -4.378906 L 0.785156 -4.378906 Z M 0.566406 -5.65625 C 0.566406 -5.34375 0.792969 -5.105469 1.140625 -5.105469 C 1.484375 -5.105469 1.703125 -5.34375 1.703125 -5.65625 C 1.703125 -5.976562 1.484375 -6.210938 1.140625 -6.210938 C 0.792969 -6.210938 0.566406 -5.976562 0.566406 -5.65625 Z M 0.566406 -5.65625 "/></g></g></g><g fill="#ffffff" fill-opacity="1"><g transform="translate(185.888601, 50.761379)"><g><path d="M 0.785156 0 L 1.492188 0 L 1.492188 -2.210938 C 1.492188 -3.171875 2.078125 -3.816406 2.894531 -3.816406 C 3.664062 -3.816406 4.136719 -3.257812 4.136719 -2.371094 L 4.136719 0 L 4.84375 0 L 4.84375 -2.4375 C 4.84375 -3.6875 4.152344 -4.492188 2.988281 -4.492188 C 2.398438 -4.492188 1.824219 -4.261719 1.445312 -3.738281 L 1.367188 -4.378906 L 0.785156 -4.378906 Z M 0.785156 0 "/></g></g></g><g fill="#ffffff" fill-opacity="1"><g transform="translate(193.028794, 50.761379)"><g><path d="M 2.683594 0.109375 C 3.671875 0.109375 4.480469 -0.421875 4.835938 -1.273438 L 4.035156 -1.273438 C 3.765625 -0.808594 3.265625 -0.558594 2.691406 -0.558594 C 1.855469 -0.558594 1.265625 -1.082031 1.15625 -1.90625 L 4.945312 -1.90625 C 4.996094 -3.433594 4.09375 -4.492188 2.691406 -4.492188 C 1.367188 -4.492188 0.4375 -3.546875 0.4375 -2.195312 C 0.4375 -0.835938 1.359375 0.109375 2.683594 0.109375 Z M 1.164062 -2.53125 C 1.292969 -3.308594 1.882812 -3.824219 2.691406 -3.824219 C 3.496094 -3.824219 4.085938 -3.335938 4.238281 -2.53125 Z M 1.164062 -2.53125 "/></g></g></g></svg>